<mxfile host="65bd71144e">
    <diagram id="GfgGNdwk-X70AKF6g2-J" name="Page-1">
        <mxGraphModel dx="3640" dy="2463" grid="0" gridSize="10" guides="1" tooltips="1" connect="1" arrows="1" fold="1" page="0" pageScale="1" pageWidth="400" pageHeight="400" background="#000000" math="0" shadow="0">
            <root>
                <mxCell id="0"/>
                <mxCell id="1" parent="0"/>
                <mxCell id="3" value="" style="endArrow=ERone;html=1;rounded=0;edgeStyle=orthogonalEdgeStyle;exitX=0;exitY=0.5;exitDx=0;exitDy=0;entryX=0;entryY=0.5;entryDx=0;entryDy=0;strokeWidth=2;startArrow=ERone;startFill=0;endFill=0;" parent="1" edge="1">
                    <mxGeometry width="50" height="50" relative="1" as="geometry">
                        <mxPoint x="40.95" y="388" as="sourcePoint"/>
                        <mxPoint x="40.95" y="198" as="targetPoint"/>
                        <Array as="points">
                            <mxPoint x="19.95" y="388"/>
                            <mxPoint x="19.95" y="198"/>
                        </Array>
                    </mxGeometry>
                </mxCell>
                <mxCell id="4" value="" style="endArrow=ERone;html=1;rounded=0;edgeStyle=orthogonalEdgeStyle;entryX=0;entryY=0.5;entryDx=0;entryDy=0;exitX=0;exitY=0.5;exitDx=0;exitDy=0;strokeWidth=2;startArrow=ERoneToMany;startFill=0;endFill=0;" parent="1" edge="1">
                    <mxGeometry width="50" height="50" relative="1" as="geometry">
                        <mxPoint x="435" y="451" as="sourcePoint"/>
                        <mxPoint x="570" y="151" as="targetPoint"/>
                        <Array as="points">
                            <mxPoint x="380" y="451"/>
                            <mxPoint x="380" y="253"/>
                            <mxPoint x="456" y="253"/>
                            <mxPoint x="456" y="151"/>
                        </Array>
                    </mxGeometry>
                </mxCell>
                <mxCell id="5" value="" style="endArrow=ERone;html=1;rounded=0;edgeStyle=orthogonalEdgeStyle;entryX=0;entryY=0.5;entryDx=0;entryDy=0;exitX=0;exitY=0.58;exitDx=0;exitDy=0;startArrow=ERoneToMany;startFill=0;strokeWidth=2;endFill=0;exitPerimeter=0;" parent="1" source="146" edge="1">
                    <mxGeometry width="50" height="50" relative="1" as="geometry">
                        <mxPoint x="721" y="451" as="sourcePoint"/>
                        <mxPoint x="570" y="151" as="targetPoint"/>
                        <Array as="points">
                            <mxPoint x="703" y="451"/>
                            <mxPoint x="703" y="329"/>
                            <mxPoint x="532" y="329"/>
                            <mxPoint x="532" y="151"/>
                        </Array>
                    </mxGeometry>
                </mxCell>
                <mxCell id="6" value="" style="endArrow=ERone;html=1;rounded=0;edgeStyle=orthogonalEdgeStyle;entryX=0;entryY=0.5;entryDx=0;entryDy=0;strokeWidth=2;startArrow=ERoneToMany;startFill=0;endFill=0;" parent="1" source="125" edge="1">
                    <mxGeometry width="50" height="50" relative="1" as="geometry">
                        <mxPoint x="437" y="720" as="sourcePoint"/>
                        <mxPoint x="570" y="151" as="targetPoint"/>
                        <Array as="points">
                            <mxPoint x="342" y="722"/>
                            <mxPoint x="342" y="151"/>
                        </Array>
                    </mxGeometry>
                </mxCell>
                <mxCell id="7" value="" style="rounded=0;whiteSpace=wrap;html=1;fillColor=#FFFFFF;gradientColor=none;gradientDirection=radial;" parent="1" vertex="1">
                    <mxGeometry x="1" y="897" width="1199" height="282" as="geometry"/>
                </mxCell>
                <mxCell id="8" value="&lt;font style=&quot;background-color: rgb(255, 255, 255); font-size: 25px;&quot; color=&quot;#000000&quot;&gt;KEY&lt;/font&gt;" style="text;html=1;align=center;verticalAlign=middle;resizable=0;points=[];autosize=1;strokeColor=none;fillColor=none;rounded=0;" parent="1" vertex="1">
                    <mxGeometry x="152" y="897" width="95" height="57" as="geometry"/>
                </mxCell>
                <mxCell id="9" value="&lt;font color=&quot;#ffffff&quot;&gt;Table&lt;/font&gt;" style="shape=table;startSize=30;container=1;collapsible=1;childLayout=tableLayout;fixedRows=1;rowLines=0;fontStyle=1;align=center;resizeLast=1;html=1;strokeColor=#000000;rounded=0;" parent="1" vertex="1">
                    <mxGeometry x="174" y="956" width="180" height="147" as="geometry"/>
                </mxCell>
                <mxCell id="10" value="" style="shape=tableRow;horizontal=0;startSize=0;swimlaneHead=0;swimlaneBody=0;fillColor=none;collapsible=0;dropTarget=0;points=[[0,0.5],[1,0.5]];portConstraint=eastwest;top=0;left=0;right=0;bottom=1;rounded=0;" parent="9" vertex="1">
                    <mxGeometry y="30" width="180" height="34" as="geometry"/>
                </mxCell>
                <mxCell id="11" value="&lt;font color=&quot;#000000&quot;&gt;PK&lt;/font&gt;" style="shape=partialRectangle;connectable=0;fillColor=none;top=0;left=0;bottom=0;right=0;fontStyle=1;overflow=hidden;whiteSpace=wrap;html=1;rounded=0;" parent="10" vertex="1">
                    <mxGeometry width="30" height="34" as="geometry">
                        <mxRectangle width="30" height="34" as="alternateBounds"/>
                    </mxGeometry>
                </mxCell>
                <mxCell id="12" value="&lt;font color=&quot;#000000&quot;&gt;UniqueID&lt;/font&gt;" style="shape=partialRectangle;connectable=0;fillColor=none;top=0;left=0;bottom=0;right=0;align=left;spacingLeft=6;fontStyle=5;overflow=hidden;whiteSpace=wrap;html=1;rounded=0;" parent="10" vertex="1">
                    <mxGeometry x="30" width="150" height="34" as="geometry">
                        <mxRectangle width="150" height="34" as="alternateBounds"/>
                    </mxGeometry>
                </mxCell>
                <mxCell id="13" value="" style="shape=tableRow;horizontal=0;startSize=0;swimlaneHead=0;swimlaneBody=0;fillColor=none;collapsible=0;dropTarget=0;points=[[0,0.5],[1,0.5]];portConstraint=eastwest;top=0;left=0;right=0;bottom=0;rounded=0;" parent="9" vertex="1">
                    <mxGeometry y="64" width="180" height="23" as="geometry"/>
                </mxCell>
                <mxCell id="14" value="" style="shape=partialRectangle;connectable=0;fillColor=none;top=0;left=0;bottom=0;right=0;editable=1;overflow=hidden;whiteSpace=wrap;html=1;rounded=0;" parent="13" vertex="1">
                    <mxGeometry width="30" height="23" as="geometry">
                        <mxRectangle width="30" height="23" as="alternateBounds"/>
                    </mxGeometry>
                </mxCell>
                <mxCell id="15" value="&lt;font color=&quot;#000000&quot;&gt;Row 1&lt;/font&gt;" style="shape=partialRectangle;connectable=0;fillColor=none;top=0;left=0;bottom=0;right=0;align=left;spacingLeft=6;overflow=hidden;whiteSpace=wrap;html=1;rounded=0;" parent="13" vertex="1">
                    <mxGeometry x="30" width="150" height="23" as="geometry">
                        <mxRectangle width="150" height="23" as="alternateBounds"/>
                    </mxGeometry>
                </mxCell>
                <mxCell id="16" value="" style="shape=tableRow;horizontal=0;startSize=0;swimlaneHead=0;swimlaneBody=0;fillColor=none;collapsible=0;dropTarget=0;points=[[0,0.5],[1,0.5]];portConstraint=eastwest;top=0;left=0;right=0;bottom=0;rounded=0;" parent="9" vertex="1">
                    <mxGeometry y="87" width="180" height="30" as="geometry"/>
                </mxCell>
                <mxCell id="17" value="" style="shape=partialRectangle;connectable=0;fillColor=none;top=0;left=0;bottom=0;right=0;editable=1;overflow=hidden;whiteSpace=wrap;html=1;rounded=0;" parent="16" vertex="1">
                    <mxGeometry width="30" height="30" as="geometry">
                        <mxRectangle width="30" height="30" as="alternateBounds"/>
                    </mxGeometry>
                </mxCell>
                <mxCell id="18" value="&lt;font color=&quot;#000000&quot;&gt;Row 2&lt;/font&gt;" style="shape=partialRectangle;connectable=0;fillColor=none;top=0;left=0;bottom=0;right=0;align=left;spacingLeft=6;overflow=hidden;whiteSpace=wrap;html=1;rounded=0;" parent="16" vertex="1">
                    <mxGeometry x="30" width="150" height="30" as="geometry">
                        <mxRectangle width="150" height="30" as="alternateBounds"/>
                    </mxGeometry>
                </mxCell>
                <mxCell id="19" value="" style="shape=tableRow;horizontal=0;startSize=0;swimlaneHead=0;swimlaneBody=0;fillColor=none;collapsible=0;dropTarget=0;points=[[0,0.5],[1,0.5]];portConstraint=eastwest;top=0;left=0;right=0;bottom=0;rounded=0;" parent="9" vertex="1">
                    <mxGeometry y="117" width="180" height="30" as="geometry"/>
                </mxCell>
                <mxCell id="20" value="" style="shape=partialRectangle;connectable=0;fillColor=none;top=0;left=0;bottom=0;right=0;editable=1;overflow=hidden;whiteSpace=wrap;html=1;rounded=0;" parent="19" vertex="1">
                    <mxGeometry width="30" height="30" as="geometry">
                        <mxRectangle width="30" height="30" as="alternateBounds"/>
                    </mxGeometry>
                </mxCell>
                <mxCell id="21" value="&lt;font color=&quot;#000000&quot;&gt;Row 3&lt;/font&gt;" style="shape=partialRectangle;connectable=0;fillColor=none;top=0;left=0;bottom=0;right=0;align=left;spacingLeft=6;overflow=hidden;whiteSpace=wrap;html=1;rounded=0;" parent="19" vertex="1">
                    <mxGeometry x="30" width="150" height="30" as="geometry">
                        <mxRectangle width="150" height="30" as="alternateBounds"/>
                    </mxGeometry>
                </mxCell>
                <mxCell id="22" value="&lt;font color=&quot;#000000&quot;&gt;TABLE&lt;/font&gt;" style="text;html=1;align=center;verticalAlign=middle;resizable=0;points=[];autosize=1;strokeColor=none;fillColor=none;rounded=0;" parent="1" vertex="1">
                    <mxGeometry x="226" y="1103" width="76" height="38" as="geometry"/>
                </mxCell>
                <mxCell id="23" value="&lt;font color=&quot;#000000&quot; style=&quot;font-size: 73px;&quot;&gt;PK&lt;/font&gt;" style="text;html=1;align=center;verticalAlign=middle;resizable=0;points=[];autosize=1;strokeColor=none;fillColor=none;rounded=0;" parent="1" vertex="1">
                    <mxGeometry x="418" y="954" width="133" height="114" as="geometry"/>
                </mxCell>
                <mxCell id="24" value="&lt;font color=&quot;#000000&quot;&gt;PRIMERY KEY&lt;/font&gt;" style="text;html=1;align=center;verticalAlign=middle;resizable=0;points=[];autosize=1;strokeColor=none;fillColor=none;rounded=0;" parent="1" vertex="1">
                    <mxGeometry x="418" y="1103" width="114" height="38" as="geometry"/>
                </mxCell>
                <mxCell id="25" value="&lt;font color=&quot;#000000&quot; style=&quot;font-size: 73px;&quot;&gt;FK&lt;/font&gt;" style="text;html=1;align=center;verticalAlign=middle;resizable=0;points=[];autosize=1;strokeColor=none;fillColor=none;rounded=0;" parent="1" vertex="1">
                    <mxGeometry x="582" y="956" width="133" height="114" as="geometry"/>
                </mxCell>
                <mxCell id="26" value="&lt;font color=&quot;#000000&quot;&gt;FOREIGN KEY&lt;/font&gt;" style="text;html=1;align=center;verticalAlign=middle;resizable=0;points=[];autosize=1;strokeColor=none;fillColor=none;rounded=0;" parent="1" vertex="1">
                    <mxGeometry x="582" y="1103" width="114" height="38" as="geometry"/>
                </mxCell>
                <mxCell id="27" value="&lt;font color=&quot;#000000&quot;&gt;RELATIONSHIPS&lt;/font&gt;" style="text;html=1;align=center;verticalAlign=middle;resizable=0;points=[];autosize=1;strokeColor=none;fillColor=none;rounded=0;" parent="1" vertex="1">
                    <mxGeometry x="950.5" y="918" width="133" height="38" as="geometry"/>
                </mxCell>
                <mxCell id="28" value="" style="endArrow=ERone;html=1;rounded=0;strokeColor=#000000;startArrow=ERone;startFill=0;endFill=0;strokeWidth=2;" parent="1" edge="1">
                    <mxGeometry width="50" height="50" relative="1" as="geometry">
                        <mxPoint x="916.5" y="1020.79" as="sourcePoint"/>
                        <mxPoint x="1116.5" y="1020.79" as="targetPoint"/>
                    </mxGeometry>
                </mxCell>
                <mxCell id="29" value="&lt;font color=&quot;#000000&quot;&gt;1 TO 1&lt;/font&gt;" style="text;html=1;align=center;verticalAlign=middle;resizable=0;points=[];autosize=1;strokeColor=none;fillColor=none;rounded=0;" parent="1" vertex="1">
                    <mxGeometry x="988" y="981" width="76" height="38" as="geometry"/>
                </mxCell>
                <mxCell id="30" value="&lt;font color=&quot;#000000&quot; style=&quot;font-size: 73px;&quot;&gt;QU&lt;/font&gt;" style="text;html=1;align=center;verticalAlign=middle;resizable=0;points=[];autosize=1;strokeColor=none;fillColor=none;rounded=0;" parent="1" vertex="1">
                    <mxGeometry x="732" y="954" width="152" height="114" as="geometry"/>
                </mxCell>
                <mxCell id="31" value="&lt;font color=&quot;#000000&quot;&gt;UNIQUE KEY&lt;/font&gt;" style="text;html=1;align=center;verticalAlign=middle;resizable=0;points=[];autosize=1;strokeColor=none;fillColor=none;rounded=0;" parent="1" vertex="1">
                    <mxGeometry x="751" y="1103" width="114" height="38" as="geometry"/>
                </mxCell>
                <mxCell id="32" value="" style="endArrow=ERoneToMany;html=1;rounded=0;strokeColor=#000000;startArrow=ERone;startFill=0;endFill=0;strokeWidth=2;" parent="1" edge="1">
                    <mxGeometry width="50" height="50" relative="1" as="geometry">
                        <mxPoint x="916.5" y="1089" as="sourcePoint"/>
                        <mxPoint x="1116.5" y="1089" as="targetPoint"/>
                    </mxGeometry>
                </mxCell>
                <mxCell id="33" value="&lt;font color=&quot;#000000&quot;&gt;1 TO MANY&lt;/font&gt;" style="text;html=1;align=center;verticalAlign=middle;resizable=0;points=[];autosize=1;strokeColor=none;fillColor=none;rounded=0;" parent="1" vertex="1">
                    <mxGeometry x="977.5" y="1051" width="95" height="38" as="geometry"/>
                </mxCell>
                <mxCell id="34" value="&lt;i&gt;VISITOR&lt;/i&gt;" style="shape=table;startSize=38;container=1;collapsible=1;childLayout=tableLayout;fixedRows=1;rowLines=0;fontStyle=1;align=center;resizeLast=1;html=1;whiteSpace=wrap;rounded=0;" parent="1" vertex="1">
                    <mxGeometry x="40.95" y="150" width="264" height="78" as="geometry"/>
                </mxCell>
                <mxCell id="35" value="" style="shape=tableRow;horizontal=0;startSize=0;swimlaneHead=0;swimlaneBody=0;fillColor=none;collapsible=0;dropTarget=0;points=[[0,0.5],[1,0.5]];portConstraint=eastwest;top=0;left=0;right=0;bottom=1;html=1;swimlaneFillColor=default;strokeColor=#F0F0F0;rounded=0;swimlaneLine=1;" parent="34" vertex="1">
                    <mxGeometry y="38" width="264" height="20" as="geometry"/>
                </mxCell>
                <mxCell id="36" value="&lt;i&gt;PK&lt;/i&gt;" style="shape=partialRectangle;connectable=0;fillColor=none;top=0;left=0;bottom=0;right=0;fontStyle=1;overflow=hidden;html=1;whiteSpace=wrap;rounded=0;" parent="35" vertex="1">
                    <mxGeometry width="22" height="20" as="geometry">
                        <mxRectangle width="22" height="20" as="alternateBounds"/>
                    </mxGeometry>
                </mxCell>
                <mxCell id="37" value="&lt;i&gt;IP Address&amp;nbsp; &amp;nbsp; &amp;nbsp; &amp;nbsp; Long not null&lt;/i&gt;" style="shape=partialRectangle;connectable=0;fillColor=none;top=0;left=0;bottom=0;right=0;align=left;spacingLeft=6;fontStyle=5;overflow=hidden;html=1;whiteSpace=wrap;rounded=0;" parent="35" vertex="1">
                    <mxGeometry x="22" width="242" height="20" as="geometry">
                        <mxRectangle width="242" height="20" as="alternateBounds"/>
                    </mxGeometry>
                </mxCell>
                <mxCell id="38" value="" style="shape=tableRow;horizontal=0;startSize=0;swimlaneHead=0;swimlaneBody=0;fillColor=none;collapsible=0;dropTarget=0;points=[[0,0.5],[1,0.5]];portConstraint=eastwest;top=0;left=0;right=0;bottom=1;html=1;rounded=0;" parent="34" vertex="1">
                    <mxGeometry y="58" width="264" height="20" as="geometry"/>
                </mxCell>
                <mxCell id="39" value="" style="shape=partialRectangle;connectable=0;fillColor=none;top=0;left=0;bottom=0;right=0;editable=1;overflow=hidden;html=1;whiteSpace=wrap;rounded=0;" parent="38" vertex="1">
                    <mxGeometry width="22" height="20" as="geometry">
                        <mxRectangle width="22" height="20" as="alternateBounds"/>
                    </mxGeometry>
                </mxCell>
                <mxCell id="40" value="&lt;i&gt;&lt;b&gt;Timestamp&amp;nbsp; &amp;nbsp; &amp;nbsp; &amp;nbsp;timestamp not null&lt;/b&gt;&lt;/i&gt;" style="shape=partialRectangle;connectable=0;fillColor=none;top=0;left=0;bottom=0;right=0;align=left;spacingLeft=6;overflow=hidden;html=1;whiteSpace=wrap;rounded=0;" parent="38" vertex="1">
                    <mxGeometry x="22" width="242" height="20" as="geometry">
                        <mxRectangle width="242" height="20" as="alternateBounds"/>
                    </mxGeometry>
                </mxCell>
                <mxCell id="41" value="" style="endArrow=none;html=1;rounded=0;entryX=0.421;entryY=0.001;entryDx=0;entryDy=0;entryPerimeter=0;exitX=0.421;exitY=1.001;exitDx=0;exitDy=0;exitPerimeter=0;" parent="34" source="38" target="35" edge="1">
                    <mxGeometry width="50" height="50" relative="1" as="geometry">
                        <mxPoint x="74" y="88" as="sourcePoint"/>
                        <mxPoint x="124" y="38" as="targetPoint"/>
                    </mxGeometry>
                </mxCell>
                <mxCell id="42" value="&lt;i&gt;CANVAS&lt;/i&gt;" style="shape=table;startSize=38;container=1;collapsible=1;childLayout=tableLayout;fixedRows=1;rowLines=0;fontStyle=1;align=center;resizeLast=1;html=1;whiteSpace=wrap;rounded=0;" parent="1" vertex="1">
                    <mxGeometry x="40.95" y="319" width="282" height="118" as="geometry"/>
                </mxCell>
                <mxCell id="43" value="" style="shape=tableRow;horizontal=0;startSize=0;swimlaneHead=0;swimlaneBody=0;fillColor=none;collapsible=0;dropTarget=0;points=[[0,0.5],[1,0.5]];portConstraint=eastwest;top=0;left=0;right=0;bottom=1;html=1;swimlaneFillColor=default;strokeColor=#F0F0F0;rounded=0;swimlaneLine=1;" parent="42" vertex="1">
                    <mxGeometry y="38" width="282" height="20" as="geometry"/>
                </mxCell>
                <mxCell id="44" value="&lt;i&gt;PK&lt;/i&gt;" style="shape=partialRectangle;connectable=0;fillColor=none;top=0;left=0;bottom=0;right=0;fontStyle=1;overflow=hidden;html=1;whiteSpace=wrap;rounded=0;" parent="43" vertex="1">
                    <mxGeometry width="22" height="20" as="geometry">
                        <mxRectangle width="22" height="20" as="alternateBounds"/>
                    </mxGeometry>
                </mxCell>
                <mxCell id="45" value="&lt;i&gt;Initial&amp;nbsp; &amp;nbsp; &amp;nbsp; &amp;nbsp; &amp;nbsp; &amp;nbsp; &amp;nbsp; &amp;nbsp; &amp;nbsp; &amp;nbsp; varchar not null&lt;/i&gt;" style="shape=partialRectangle;connectable=0;fillColor=none;top=0;left=0;bottom=0;right=0;align=left;spacingLeft=6;fontStyle=5;overflow=hidden;html=1;whiteSpace=wrap;rounded=0;" parent="43" vertex="1">
                    <mxGeometry x="22" width="260" height="20" as="geometry">
                        <mxRectangle width="260" height="20" as="alternateBounds"/>
                    </mxGeometry>
                </mxCell>
                <mxCell id="46" value="" style="shape=tableRow;horizontal=0;startSize=0;swimlaneHead=0;swimlaneBody=0;fillColor=none;collapsible=0;dropTarget=0;points=[[0,0.5],[1,0.5]];portConstraint=eastwest;top=0;left=0;right=0;bottom=1;html=1;rounded=0;" parent="42" vertex="1">
                    <mxGeometry y="58" width="282" height="20" as="geometry"/>
                </mxCell>
                <mxCell id="47" value="&lt;b&gt;&lt;i&gt;FK&lt;/i&gt;&lt;/b&gt;" style="shape=partialRectangle;connectable=0;fillColor=none;top=0;left=0;bottom=0;right=0;editable=1;overflow=hidden;html=1;whiteSpace=wrap;rounded=0;" parent="46" vertex="1">
                    <mxGeometry width="22" height="20" as="geometry">
                        <mxRectangle width="22" height="20" as="alternateBounds"/>
                    </mxGeometry>
                </mxCell>
                <mxCell id="48" value="&lt;b&gt;&lt;i&gt;IP Address&amp;nbsp; &amp;nbsp; &amp;nbsp; &amp;nbsp; &amp;nbsp; varchar not null&lt;/i&gt;&lt;/b&gt;" style="shape=partialRectangle;connectable=0;fillColor=none;top=0;left=0;bottom=0;right=0;align=left;spacingLeft=6;overflow=hidden;html=1;whiteSpace=wrap;rounded=0;" parent="46" vertex="1">
                    <mxGeometry x="22" width="260" height="20" as="geometry">
                        <mxRectangle width="260" height="20" as="alternateBounds"/>
                    </mxGeometry>
                </mxCell>
                <mxCell id="49" style="shape=tableRow;horizontal=0;startSize=0;swimlaneHead=0;swimlaneBody=0;fillColor=none;collapsible=0;dropTarget=0;points=[[0,0.5],[1,0.5]];portConstraint=eastwest;top=0;left=0;right=0;bottom=1;html=1;rounded=0;" parent="42" vertex="1">
                    <mxGeometry y="78" width="282" height="20" as="geometry"/>
                </mxCell>
                <mxCell id="50" style="shape=partialRectangle;connectable=0;fillColor=none;top=0;left=0;bottom=0;right=0;editable=1;overflow=hidden;html=1;whiteSpace=wrap;rounded=0;" parent="49" vertex="1">
                    <mxGeometry width="22" height="20" as="geometry">
                        <mxRectangle width="22" height="20" as="alternateBounds"/>
                    </mxGeometry>
                </mxCell>
                <mxCell id="51" value="&lt;i&gt;&lt;b&gt;jobTitle&amp;nbsp; &amp;nbsp; &amp;nbsp; &amp;nbsp; &amp;nbsp; &amp;nbsp; &amp;nbsp; &amp;nbsp; varchar not null&lt;/b&gt;&lt;/i&gt;" style="shape=partialRectangle;connectable=0;fillColor=none;top=0;left=0;bottom=0;right=0;align=left;spacingLeft=6;overflow=hidden;html=1;whiteSpace=wrap;rounded=0;" parent="49" vertex="1">
                    <mxGeometry x="22" width="260" height="20" as="geometry">
                        <mxRectangle width="260" height="20" as="alternateBounds"/>
                    </mxGeometry>
                </mxCell>
                <mxCell id="52" style="shape=tableRow;horizontal=0;startSize=0;swimlaneHead=0;swimlaneBody=0;fillColor=none;collapsible=0;dropTarget=0;points=[[0,0.5],[1,0.5]];portConstraint=eastwest;top=0;left=0;right=0;bottom=1;html=1;rounded=0;" parent="42" vertex="1">
                    <mxGeometry y="98" width="282" height="20" as="geometry"/>
                </mxCell>
                <mxCell id="53" style="shape=partialRectangle;connectable=0;fillColor=none;top=0;left=0;bottom=0;right=0;editable=1;overflow=hidden;html=1;whiteSpace=wrap;rounded=0;" parent="52" vertex="1">
                    <mxGeometry width="22" height="20" as="geometry">
                        <mxRectangle width="22" height="20" as="alternateBounds"/>
                    </mxGeometry>
                </mxCell>
                <mxCell id="54" value="&lt;b&gt;&lt;i&gt;picture&amp;nbsp; &amp;nbsp; &amp;nbsp; &amp;nbsp; &amp;nbsp; &amp;nbsp; &amp;nbsp; &amp;nbsp; &amp;nbsp;varchar&amp;nbsp;&lt;/i&gt;&lt;/b&gt;" style="shape=partialRectangle;connectable=0;fillColor=none;top=0;left=0;bottom=0;right=0;align=left;spacingLeft=6;overflow=hidden;html=1;whiteSpace=wrap;rounded=0;" parent="52" vertex="1">
                    <mxGeometry x="22" width="260" height="20" as="geometry">
                        <mxRectangle width="260" height="20" as="alternateBounds"/>
                    </mxGeometry>
                </mxCell>
                <mxCell id="55" value="" style="endArrow=none;html=1;rounded=0;entryX=0.421;entryY=0.001;entryDx=0;entryDy=0;entryPerimeter=0;exitX=0.403;exitY=0.998;exitDx=0;exitDy=0;exitPerimeter=0;" parent="42" source="52" edge="1">
                    <mxGeometry width="50" height="50" relative="1" as="geometry">
                        <mxPoint x="114" y="114" as="sourcePoint"/>
                        <mxPoint x="113.72199999999998" y="38.01999999999998" as="targetPoint"/>
                    </mxGeometry>
                </mxCell>
                <mxCell id="56" value="&lt;i&gt;FEED&lt;/i&gt;" style="shape=table;startSize=38;container=1;collapsible=1;childLayout=tableLayout;fixedRows=1;rowLines=0;fontStyle=1;align=center;resizeLast=1;html=1;whiteSpace=wrap;rounded=0;" parent="1" vertex="1">
                    <mxGeometry x="435" y="381" width="247" height="138" as="geometry"/>
                </mxCell>
                <mxCell id="57" value="" style="shape=tableRow;horizontal=0;startSize=0;swimlaneHead=0;swimlaneBody=0;fillColor=none;collapsible=0;dropTarget=0;points=[[0,0.5],[1,0.5]];portConstraint=eastwest;top=0;left=0;right=0;bottom=1;html=1;swimlaneFillColor=default;strokeColor=#F0F0F0;rounded=0;swimlaneLine=1;" parent="56" vertex="1">
                    <mxGeometry y="38" width="247" height="20" as="geometry"/>
                </mxCell>
                <mxCell id="58" value="&lt;i&gt;PK&lt;/i&gt;" style="shape=partialRectangle;connectable=0;fillColor=none;top=0;left=0;bottom=0;right=0;fontStyle=1;overflow=hidden;html=1;whiteSpace=wrap;rounded=0;" parent="57" vertex="1">
                    <mxGeometry width="22" height="20" as="geometry">
                        <mxRectangle width="22" height="20" as="alternateBounds"/>
                    </mxGeometry>
                </mxCell>
                <mxCell id="59" value="&lt;i&gt;feedId&amp;nbsp; &amp;nbsp; &amp;nbsp; &amp;nbsp; &amp;nbsp; &amp;nbsp; &amp;nbsp; &amp;nbsp; &amp;nbsp; &amp;nbsp;Long AI not null&lt;/i&gt;" style="shape=partialRectangle;connectable=0;fillColor=none;top=0;left=0;bottom=0;right=0;align=left;spacingLeft=6;fontStyle=5;overflow=hidden;html=1;whiteSpace=wrap;rounded=0;" parent="57" vertex="1">
                    <mxGeometry x="22" width="225" height="20" as="geometry">
                        <mxRectangle width="225" height="20" as="alternateBounds"/>
                    </mxGeometry>
                </mxCell>
                <mxCell id="60" value="" style="shape=tableRow;horizontal=0;startSize=0;swimlaneHead=0;swimlaneBody=0;fillColor=none;collapsible=0;dropTarget=0;points=[[0,0.5],[1,0.5]];portConstraint=eastwest;top=0;left=0;right=0;bottom=1;html=1;rounded=0;" parent="56" vertex="1">
                    <mxGeometry y="58" width="247" height="20" as="geometry"/>
                </mxCell>
                <mxCell id="61" value="&lt;b&gt;&lt;i&gt;FK&lt;/i&gt;&lt;/b&gt;" style="shape=partialRectangle;connectable=0;fillColor=none;top=0;left=0;bottom=0;right=0;editable=1;overflow=hidden;html=1;whiteSpace=wrap;rounded=0;" parent="60" vertex="1">
                    <mxGeometry width="22" height="20" as="geometry">
                        <mxRectangle width="22" height="20" as="alternateBounds"/>
                    </mxGeometry>
                </mxCell>
                <mxCell id="62" value="&lt;b&gt;&lt;i&gt;userId&amp;nbsp; &amp;nbsp; &amp;nbsp; &amp;nbsp; &amp;nbsp; &amp;nbsp; &amp;nbsp; &amp;nbsp; &amp;nbsp; &amp;nbsp;Long not null&lt;/i&gt;&lt;/b&gt;" style="shape=partialRectangle;connectable=0;fillColor=none;top=0;left=0;bottom=0;right=0;align=left;spacingLeft=6;overflow=hidden;html=1;whiteSpace=wrap;rounded=0;" parent="60" vertex="1">
                    <mxGeometry x="22" width="225" height="20" as="geometry">
                        <mxRectangle width="225" height="20" as="alternateBounds"/>
                    </mxGeometry>
                </mxCell>
                <mxCell id="63" style="shape=tableRow;horizontal=0;startSize=0;swimlaneHead=0;swimlaneBody=0;fillColor=none;collapsible=0;dropTarget=0;points=[[0,0.5],[1,0.5]];portConstraint=eastwest;top=0;left=0;right=0;bottom=1;html=1;rounded=0;" parent="56" vertex="1">
                    <mxGeometry y="78" width="247" height="20" as="geometry"/>
                </mxCell>
                <mxCell id="64" style="shape=partialRectangle;connectable=0;fillColor=none;top=0;left=0;bottom=0;right=0;editable=1;overflow=hidden;html=1;whiteSpace=wrap;rounded=0;" parent="63" vertex="1">
                    <mxGeometry width="22" height="20" as="geometry">
                        <mxRectangle width="22" height="20" as="alternateBounds"/>
                    </mxGeometry>
                </mxCell>
                <mxCell id="65" value="&lt;i&gt;&lt;b&gt;content&amp;nbsp; &amp;nbsp; &amp;nbsp; &amp;nbsp; &amp;nbsp; &amp;nbsp; &amp;nbsp; &amp;nbsp; varchar not null&lt;/b&gt;&lt;/i&gt;" style="shape=partialRectangle;connectable=0;fillColor=none;top=0;left=0;bottom=0;right=0;align=left;spacingLeft=6;overflow=hidden;html=1;whiteSpace=wrap;rounded=0;" parent="63" vertex="1">
                    <mxGeometry x="22" width="225" height="20" as="geometry">
                        <mxRectangle width="225" height="20" as="alternateBounds"/>
                    </mxGeometry>
                </mxCell>
                <mxCell id="66" style="shape=tableRow;horizontal=0;startSize=0;swimlaneHead=0;swimlaneBody=0;fillColor=none;collapsible=0;dropTarget=0;points=[[0,0.5],[1,0.5]];portConstraint=eastwest;top=0;left=0;right=0;bottom=1;html=1;rounded=0;" parent="56" vertex="1">
                    <mxGeometry y="98" width="247" height="20" as="geometry"/>
                </mxCell>
                <mxCell id="67" style="shape=partialRectangle;connectable=0;fillColor=none;top=0;left=0;bottom=0;right=0;editable=1;overflow=hidden;html=1;whiteSpace=wrap;rounded=0;" parent="66" vertex="1">
                    <mxGeometry width="22" height="20" as="geometry">
                        <mxRectangle width="22" height="20" as="alternateBounds"/>
                    </mxGeometry>
                </mxCell>
                <mxCell id="68" value="&lt;b&gt;&lt;i&gt;picture&amp;nbsp; &amp;nbsp; &amp;nbsp; &amp;nbsp; &amp;nbsp; &amp;nbsp; &amp;nbsp; &amp;nbsp; &amp;nbsp;varchar not null&lt;/i&gt;&lt;/b&gt;" style="shape=partialRectangle;connectable=0;fillColor=none;top=0;left=0;bottom=0;right=0;align=left;spacingLeft=6;overflow=hidden;html=1;whiteSpace=wrap;rounded=0;" parent="66" vertex="1">
                    <mxGeometry x="22" width="225" height="20" as="geometry">
                        <mxRectangle width="225" height="20" as="alternateBounds"/>
                    </mxGeometry>
                </mxCell>
                <mxCell id="69" style="shape=tableRow;horizontal=0;startSize=0;swimlaneHead=0;swimlaneBody=0;fillColor=none;collapsible=0;dropTarget=0;points=[[0,0.5],[1,0.5]];portConstraint=eastwest;top=0;left=0;right=0;bottom=1;html=1;rounded=0;" parent="56" vertex="1">
                    <mxGeometry y="118" width="247" height="20" as="geometry"/>
                </mxCell>
                <mxCell id="70" style="shape=partialRectangle;connectable=0;fillColor=none;top=0;left=0;bottom=0;right=0;editable=1;overflow=hidden;html=1;whiteSpace=wrap;rounded=0;" parent="69" vertex="1">
                    <mxGeometry width="22" height="20" as="geometry">
                        <mxRectangle width="22" height="20" as="alternateBounds"/>
                    </mxGeometry>
                </mxCell>
                <mxCell id="71" value="&lt;b&gt;&lt;i&gt;dateCreated&amp;nbsp; &amp;nbsp; &amp;nbsp; &amp;nbsp; &amp;nbsp;datetime not null&lt;/i&gt;&lt;/b&gt;" style="shape=partialRectangle;connectable=0;fillColor=none;top=0;left=0;bottom=0;right=0;align=left;spacingLeft=6;overflow=hidden;html=1;whiteSpace=wrap;rounded=0;" parent="69" vertex="1">
                    <mxGeometry x="22" width="225" height="20" as="geometry">
                        <mxRectangle width="225" height="20" as="alternateBounds"/>
                    </mxGeometry>
                </mxCell>
                <mxCell id="72" value="" style="endArrow=none;html=1;rounded=0;entryX=0.468;entryY=0.025;entryDx=0;entryDy=0;entryPerimeter=0;exitX=0.465;exitY=1.001;exitDx=0;exitDy=0;exitPerimeter=0;" parent="56" source="69" target="57" edge="1">
                    <mxGeometry width="50" height="50" relative="1" as="geometry">
                        <mxPoint x="114" y="114" as="sourcePoint"/>
                        <mxPoint x="113.72199999999998" y="38.01999999999998" as="targetPoint"/>
                    </mxGeometry>
                </mxCell>
                <mxCell id="73" value="&lt;i&gt;USER&lt;/i&gt;" style="shape=table;startSize=38;container=1;collapsible=1;childLayout=tableLayout;fixedRows=1;rowLines=0;fontStyle=1;align=center;resizeLast=1;html=1;whiteSpace=wrap;rounded=0;" parent="1" vertex="1">
                    <mxGeometry x="570" y="104" width="280" height="198" as="geometry"/>
                </mxCell>
                <mxCell id="74" value="" style="shape=tableRow;horizontal=0;startSize=0;swimlaneHead=0;swimlaneBody=0;fillColor=none;collapsible=0;dropTarget=0;points=[[0,0.5],[1,0.5]];portConstraint=eastwest;top=0;left=0;right=0;bottom=1;html=1;swimlaneFillColor=default;strokeColor=#F0F0F0;rounded=0;swimlaneLine=1;" parent="73" vertex="1">
                    <mxGeometry y="38" width="280" height="20" as="geometry"/>
                </mxCell>
                <mxCell id="75" value="&lt;i&gt;PK&lt;/i&gt;" style="shape=partialRectangle;connectable=0;fillColor=none;top=0;left=0;bottom=0;right=0;fontStyle=1;overflow=hidden;html=1;whiteSpace=wrap;rounded=0;" parent="74" vertex="1">
                    <mxGeometry width="20" height="20" as="geometry">
                        <mxRectangle width="20" height="20" as="alternateBounds"/>
                    </mxGeometry>
                </mxCell>
                <mxCell id="76" value="&lt;i&gt;userId&amp;nbsp; &amp;nbsp; &amp;nbsp; &amp;nbsp; &amp;nbsp; &amp;nbsp; &amp;nbsp; &amp;nbsp; &amp;nbsp; &amp;nbsp;Long AI not null&lt;/i&gt;" style="shape=partialRectangle;connectable=0;fillColor=none;top=0;left=0;bottom=0;right=0;align=left;spacingLeft=6;fontStyle=5;overflow=hidden;html=1;whiteSpace=wrap;rounded=0;" parent="74" vertex="1">
                    <mxGeometry x="20" width="260" height="20" as="geometry">
                        <mxRectangle width="260" height="20" as="alternateBounds"/>
                    </mxGeometry>
                </mxCell>
                <mxCell id="77" value="" style="shape=tableRow;horizontal=0;startSize=0;swimlaneHead=0;swimlaneBody=0;fillColor=none;collapsible=0;dropTarget=0;points=[[0,0.5],[1,0.5]];portConstraint=eastwest;top=0;left=0;right=0;bottom=1;html=1;rounded=0;" parent="73" vertex="1">
                    <mxGeometry y="58" width="280" height="20" as="geometry"/>
                </mxCell>
                <mxCell id="78" value="" style="shape=partialRectangle;connectable=0;fillColor=none;top=0;left=0;bottom=0;right=0;editable=1;overflow=hidden;html=1;whiteSpace=wrap;rounded=0;" parent="77" vertex="1">
                    <mxGeometry width="20" height="20" as="geometry">
                        <mxRectangle width="20" height="20" as="alternateBounds"/>
                    </mxGeometry>
                </mxCell>
                <mxCell id="79" value="&lt;i style=&quot;&quot;&gt;&lt;b&gt;firstName&amp;nbsp; &amp;nbsp; &amp;nbsp; &amp;nbsp; &amp;nbsp; &amp;nbsp; &amp;nbsp;varchar not null&lt;/b&gt;&lt;/i&gt;" style="shape=partialRectangle;connectable=0;fillColor=none;top=0;left=0;bottom=0;right=0;align=left;spacingLeft=6;overflow=hidden;html=1;whiteSpace=wrap;rounded=0;" parent="77" vertex="1">
                    <mxGeometry x="20" width="260" height="20" as="geometry">
                        <mxRectangle width="260" height="20" as="alternateBounds"/>
                    </mxGeometry>
                </mxCell>
                <mxCell id="80" style="shape=tableRow;horizontal=0;startSize=0;swimlaneHead=0;swimlaneBody=0;fillColor=none;collapsible=0;dropTarget=0;points=[[0,0.5],[1,0.5]];portConstraint=eastwest;top=0;left=0;right=0;bottom=1;html=1;rounded=0;" parent="73" vertex="1">
                    <mxGeometry y="78" width="280" height="20" as="geometry"/>
                </mxCell>
                <mxCell id="81" style="shape=partialRectangle;connectable=0;fillColor=none;top=0;left=0;bottom=0;right=0;editable=1;overflow=hidden;html=1;whiteSpace=wrap;rounded=0;" parent="80" vertex="1">
                    <mxGeometry width="20" height="20" as="geometry">
                        <mxRectangle width="20" height="20" as="alternateBounds"/>
                    </mxGeometry>
                </mxCell>
                <mxCell id="82" value="&lt;i&gt;&lt;b&gt;lastName&amp;nbsp; &amp;nbsp; &amp;nbsp; &amp;nbsp; &amp;nbsp; &amp;nbsp; &amp;nbsp;varchar not null&lt;/b&gt;&lt;/i&gt;" style="shape=partialRectangle;connectable=0;fillColor=none;top=0;left=0;bottom=0;right=0;align=left;spacingLeft=6;overflow=hidden;html=1;whiteSpace=wrap;rounded=0;" parent="80" vertex="1">
                    <mxGeometry x="20" width="260" height="20" as="geometry">
                        <mxRectangle width="260" height="20" as="alternateBounds"/>
                    </mxGeometry>
                </mxCell>
                <mxCell id="83" style="shape=tableRow;horizontal=0;startSize=0;swimlaneHead=0;swimlaneBody=0;fillColor=none;collapsible=0;dropTarget=0;points=[[0,0.5],[1,0.5]];portConstraint=eastwest;top=0;left=0;right=0;bottom=1;html=1;rounded=0;" parent="73" vertex="1">
                    <mxGeometry y="98" width="280" height="20" as="geometry"/>
                </mxCell>
                <mxCell id="84" value="&lt;b&gt;&lt;i&gt;UQ&lt;/i&gt;&lt;/b&gt;" style="shape=partialRectangle;connectable=0;fillColor=none;top=0;left=0;bottom=0;right=0;editable=1;overflow=hidden;html=1;whiteSpace=wrap;rounded=0;" parent="83" vertex="1">
                    <mxGeometry width="20" height="20" as="geometry">
                        <mxRectangle width="20" height="20" as="alternateBounds"/>
                    </mxGeometry>
                </mxCell>
                <mxCell id="85" value="&lt;b style=&quot;&quot;&gt;&lt;i&gt;username&amp;nbsp; &amp;nbsp; &amp;nbsp; &amp;nbsp; &amp;nbsp; &amp;nbsp; varchar not null&lt;/i&gt;&lt;/b&gt;" style="shape=partialRectangle;connectable=0;fillColor=none;top=0;left=0;bottom=0;right=0;align=left;spacingLeft=6;overflow=hidden;html=1;whiteSpace=wrap;rounded=0;" parent="83" vertex="1">
                    <mxGeometry x="20" width="260" height="20" as="geometry">
                        <mxRectangle width="260" height="20" as="alternateBounds"/>
                    </mxGeometry>
                </mxCell>
                <mxCell id="86" style="shape=tableRow;horizontal=0;startSize=0;swimlaneHead=0;swimlaneBody=0;fillColor=none;collapsible=0;dropTarget=0;points=[[0,0.5],[1,0.5]];portConstraint=eastwest;top=0;left=0;right=0;bottom=1;html=1;rounded=0;" parent="73" vertex="1">
                    <mxGeometry y="118" width="280" height="20" as="geometry"/>
                </mxCell>
                <mxCell id="87" style="shape=partialRectangle;connectable=0;fillColor=none;top=0;left=0;bottom=0;right=0;editable=1;overflow=hidden;html=1;whiteSpace=wrap;rounded=0;" parent="86" vertex="1">
                    <mxGeometry width="20" height="20" as="geometry">
                        <mxRectangle width="20" height="20" as="alternateBounds"/>
                    </mxGeometry>
                </mxCell>
                <mxCell id="88" value="&lt;b&gt;&lt;i&gt;phone&amp;nbsp; &amp;nbsp; &amp;nbsp; &amp;nbsp; &amp;nbsp; &amp;nbsp; &amp;nbsp; &amp;nbsp; &amp;nbsp; &amp;nbsp;varchar not null&lt;/i&gt;&lt;/b&gt;" style="shape=partialRectangle;connectable=0;fillColor=none;top=0;left=0;bottom=0;right=0;align=left;spacingLeft=6;overflow=hidden;html=1;whiteSpace=wrap;rounded=0;" parent="86" vertex="1">
                    <mxGeometry x="20" width="260" height="20" as="geometry">
                        <mxRectangle width="260" height="20" as="alternateBounds"/>
                    </mxGeometry>
                </mxCell>
                <mxCell id="89" style="shape=tableRow;horizontal=0;startSize=0;swimlaneHead=0;swimlaneBody=0;fillColor=none;collapsible=0;dropTarget=0;points=[[0,0.5],[1,0.5]];portConstraint=eastwest;top=0;left=0;right=0;bottom=1;html=1;rounded=0;" parent="73" vertex="1">
                    <mxGeometry y="138" width="280" height="20" as="geometry"/>
                </mxCell>
                <mxCell id="90" value="&lt;b&gt;&lt;i&gt;UQ&lt;/i&gt;&lt;/b&gt;" style="shape=partialRectangle;connectable=0;fillColor=none;top=0;left=0;bottom=0;right=0;editable=1;overflow=hidden;html=1;whiteSpace=wrap;rounded=0;" parent="89" vertex="1">
                    <mxGeometry width="20" height="20" as="geometry">
                        <mxRectangle width="20" height="20" as="alternateBounds"/>
                    </mxGeometry>
                </mxCell>
                <mxCell id="91" value="&lt;b&gt;&lt;i&gt;emailId&amp;nbsp; &amp;nbsp; &amp;nbsp; &amp;nbsp; &amp;nbsp; &amp;nbsp; &amp;nbsp; &amp;nbsp; &amp;nbsp;varchar not null&lt;/i&gt;&lt;/b&gt;" style="shape=partialRectangle;connectable=0;fillColor=none;top=0;left=0;bottom=0;right=0;align=left;spacingLeft=6;overflow=hidden;html=1;whiteSpace=wrap;rounded=0;" parent="89" vertex="1">
                    <mxGeometry x="20" width="260" height="20" as="geometry">
                        <mxRectangle width="260" height="20" as="alternateBounds"/>
                    </mxGeometry>
                </mxCell>
                <mxCell id="92" style="shape=tableRow;horizontal=0;startSize=0;swimlaneHead=0;swimlaneBody=0;fillColor=none;collapsible=0;dropTarget=0;points=[[0,0.5],[1,0.5]];portConstraint=eastwest;top=0;left=0;right=0;bottom=1;html=1;rounded=0;" parent="73" vertex="1">
                    <mxGeometry y="158" width="280" height="20" as="geometry"/>
                </mxCell>
                <mxCell id="93" style="shape=partialRectangle;connectable=0;fillColor=none;top=0;left=0;bottom=0;right=0;editable=1;overflow=hidden;html=1;whiteSpace=wrap;rounded=0;" parent="92" vertex="1">
                    <mxGeometry width="20" height="20" as="geometry">
                        <mxRectangle width="20" height="20" as="alternateBounds"/>
                    </mxGeometry>
                </mxCell>
                <mxCell id="94" value="&lt;b&gt;&lt;i&gt;emailVerified&amp;nbsp; &amp;nbsp; &amp;nbsp; &amp;nbsp; boolean not null&lt;/i&gt;&lt;/b&gt;" style="shape=partialRectangle;connectable=0;fillColor=none;top=0;left=0;bottom=0;right=0;align=left;spacingLeft=6;overflow=hidden;html=1;whiteSpace=wrap;rounded=0;" parent="92" vertex="1">
                    <mxGeometry x="20" width="260" height="20" as="geometry">
                        <mxRectangle width="260" height="20" as="alternateBounds"/>
                    </mxGeometry>
                </mxCell>
                <mxCell id="95" style="shape=tableRow;horizontal=0;startSize=0;swimlaneHead=0;swimlaneBody=0;fillColor=none;collapsible=0;dropTarget=0;points=[[0,0.5],[1,0.5]];portConstraint=eastwest;top=0;left=0;right=0;bottom=1;html=1;rounded=0;" parent="73" vertex="1">
                    <mxGeometry y="178" width="280" height="20" as="geometry"/>
                </mxCell>
                <mxCell id="96" style="shape=partialRectangle;connectable=0;fillColor=none;top=0;left=0;bottom=0;right=0;editable=1;overflow=hidden;html=1;whiteSpace=wrap;rounded=0;" parent="95" vertex="1">
                    <mxGeometry width="20" height="20" as="geometry">
                        <mxRectangle width="20" height="20" as="alternateBounds"/>
                    </mxGeometry>
                </mxCell>
                <mxCell id="97" value="&lt;b&gt;&lt;i&gt;createdOn&amp;nbsp; &amp;nbsp; &amp;nbsp; &amp;nbsp; &amp;nbsp; &amp;nbsp; datetime not null&lt;/i&gt;&lt;/b&gt;" style="shape=partialRectangle;connectable=0;fillColor=none;top=0;left=0;bottom=0;right=0;align=left;spacingLeft=6;overflow=hidden;html=1;whiteSpace=wrap;rounded=0;" parent="95" vertex="1">
                    <mxGeometry x="20" width="260" height="20" as="geometry">
                        <mxRectangle width="260" height="20" as="alternateBounds"/>
                    </mxGeometry>
                </mxCell>
                <mxCell id="98" value="" style="endArrow=none;html=1;rounded=0;entryX=0.421;entryY=0.001;entryDx=0;entryDy=0;entryPerimeter=0;exitX=0.403;exitY=0.981;exitDx=0;exitDy=0;exitPerimeter=0;" parent="73" source="95" edge="1">
                    <mxGeometry width="50" height="50" relative="1" as="geometry">
                        <mxPoint x="114" y="114" as="sourcePoint"/>
                        <mxPoint x="113.72199999999998" y="38.01999999999998" as="targetPoint"/>
                        <Array as="points">
                            <mxPoint x="113" y="114"/>
                        </Array>
                    </mxGeometry>
                </mxCell>
                <mxCell id="99" value="&lt;i&gt;REPO&lt;/i&gt;" style="shape=table;startSize=38;container=1;collapsible=1;childLayout=tableLayout;fixedRows=1;rowLines=0;fontStyle=1;align=center;resizeLast=1;html=1;whiteSpace=wrap;rounded=0;" parent="1" vertex="1">
                    <mxGeometry x="741.5" y="652" width="227.5" height="160" as="geometry"/>
                </mxCell>
                <mxCell id="100" value="" style="shape=tableRow;horizontal=0;startSize=0;swimlaneHead=0;swimlaneBody=0;fillColor=none;collapsible=0;dropTarget=0;points=[[0,0.5],[1,0.5]];portConstraint=eastwest;top=0;left=0;right=0;bottom=1;html=1;swimlaneFillColor=default;strokeColor=#F0F0F0;rounded=0;swimlaneLine=1;" parent="99" vertex="1">
                    <mxGeometry y="38" width="227.5" height="20" as="geometry"/>
                </mxCell>
                <mxCell id="101" value="PK" style="shape=partialRectangle;connectable=0;fillColor=none;top=0;left=0;bottom=0;right=0;fontStyle=3;overflow=hidden;html=1;whiteSpace=wrap;rounded=0;" parent="100" vertex="1">
                    <mxGeometry width="20" height="20" as="geometry">
                        <mxRectangle width="20" height="20" as="alternateBounds"/>
                    </mxGeometry>
                </mxCell>
                <mxCell id="102" value="&lt;i&gt;repoId&amp;nbsp; &amp;nbsp; &amp;nbsp; &amp;nbsp; &amp;nbsp; &amp;nbsp; &amp;nbsp; &amp;nbsp; Long AI not null&lt;/i&gt;" style="shape=partialRectangle;connectable=0;fillColor=none;top=0;left=0;bottom=0;right=0;align=left;spacingLeft=6;fontStyle=5;overflow=hidden;html=1;whiteSpace=wrap;rounded=0;" parent="100" vertex="1">
                    <mxGeometry x="20" width="207.5" height="20" as="geometry">
                        <mxRectangle width="207.5" height="20" as="alternateBounds"/>
                    </mxGeometry>
                </mxCell>
                <mxCell id="103" value="" style="shape=tableRow;horizontal=0;startSize=0;swimlaneHead=0;swimlaneBody=0;fillColor=none;collapsible=0;dropTarget=0;points=[[0,0.5],[1,0.5]];portConstraint=eastwest;top=0;left=0;right=0;bottom=1;html=1;rounded=0;" parent="99" vertex="1">
                    <mxGeometry y="58" width="227.5" height="20" as="geometry"/>
                </mxCell>
                <mxCell id="104" value="&lt;b&gt;&lt;i&gt;FK&lt;/i&gt;&lt;/b&gt;" style="shape=partialRectangle;connectable=0;fillColor=none;top=0;left=0;bottom=0;right=0;editable=1;overflow=hidden;html=1;whiteSpace=wrap;rounded=0;" parent="103" vertex="1">
                    <mxGeometry width="20" height="20" as="geometry">
                        <mxRectangle width="20" height="20" as="alternateBounds"/>
                    </mxGeometry>
                </mxCell>
                <mxCell id="105" value="&lt;i style=&quot;&quot;&gt;&lt;b&gt;userId&amp;nbsp; &amp;nbsp; &amp;nbsp; &amp;nbsp; &amp;nbsp; &amp;nbsp; &amp;nbsp; &amp;nbsp; Long not null&lt;/b&gt;&lt;/i&gt;" style="shape=partialRectangle;connectable=0;fillColor=none;top=0;left=0;bottom=0;right=0;align=left;spacingLeft=6;overflow=hidden;html=1;whiteSpace=wrap;rounded=0;" parent="103" vertex="1">
                    <mxGeometry x="20" width="207.5" height="20" as="geometry">
                        <mxRectangle width="207.5" height="20" as="alternateBounds"/>
                    </mxGeometry>
                </mxCell>
                <mxCell id="106" style="shape=tableRow;horizontal=0;startSize=0;swimlaneHead=0;swimlaneBody=0;fillColor=none;collapsible=0;dropTarget=0;points=[[0,0.5],[1,0.5]];portConstraint=eastwest;top=0;left=0;right=0;bottom=1;html=1;rounded=0;" parent="99" vertex="1">
                    <mxGeometry y="78" width="227.5" height="20" as="geometry"/>
                </mxCell>
                <mxCell id="107" style="shape=partialRectangle;connectable=0;fillColor=none;top=0;left=0;bottom=0;right=0;editable=1;overflow=hidden;html=1;whiteSpace=wrap;rounded=0;" parent="106" vertex="1">
                    <mxGeometry width="20" height="20" as="geometry">
                        <mxRectangle width="20" height="20" as="alternateBounds"/>
                    </mxGeometry>
                </mxCell>
                <mxCell id="108" value="&lt;i&gt;&lt;b&gt;description&amp;nbsp; &amp;nbsp; &amp;nbsp; &amp;nbsp;&lt;font style=&quot;font-size: 9px;&quot;&gt;character varying not null&lt;/font&gt;&lt;/b&gt;&lt;/i&gt;" style="shape=partialRectangle;connectable=0;fillColor=none;top=0;left=0;bottom=0;right=0;align=left;spacingLeft=6;overflow=hidden;html=1;whiteSpace=wrap;rounded=0;" parent="106" vertex="1">
                    <mxGeometry x="20" width="207.5" height="20" as="geometry">
                        <mxRectangle width="207.5" height="20" as="alternateBounds"/>
                    </mxGeometry>
                </mxCell>
                <mxCell id="109" style="shape=tableRow;horizontal=0;startSize=0;swimlaneHead=0;swimlaneBody=0;fillColor=none;collapsible=0;dropTarget=0;points=[[0,0.5],[1,0.5]];portConstraint=eastwest;top=0;left=0;right=0;bottom=1;html=1;rounded=0;" parent="99" vertex="1">
                    <mxGeometry y="98" width="227.5" height="20" as="geometry"/>
                </mxCell>
                <mxCell id="110" value="" style="shape=partialRectangle;connectable=0;fillColor=none;top=0;left=0;bottom=0;right=0;editable=1;overflow=hidden;html=1;whiteSpace=wrap;rounded=0;" parent="109" vertex="1">
                    <mxGeometry width="20" height="20" as="geometry">
                        <mxRectangle width="20" height="20" as="alternateBounds"/>
                    </mxGeometry>
                </mxCell>
                <mxCell id="111" value="&lt;b style=&quot;&quot;&gt;&lt;i&gt;tags&amp;nbsp; &amp;nbsp; &amp;nbsp; &amp;nbsp; &amp;nbsp; &amp;nbsp; &amp;nbsp; &amp;nbsp; &amp;nbsp; &amp;nbsp;varchar not null&lt;/i&gt;&lt;/b&gt;" style="shape=partialRectangle;connectable=0;fillColor=none;top=0;left=0;bottom=0;right=0;align=left;spacingLeft=6;overflow=hidden;html=1;whiteSpace=wrap;rounded=0;" parent="109" vertex="1">
                    <mxGeometry x="20" width="207.5" height="20" as="geometry">
                        <mxRectangle width="207.5" height="20" as="alternateBounds"/>
                    </mxGeometry>
                </mxCell>
                <mxCell id="112" style="shape=tableRow;horizontal=0;startSize=0;swimlaneHead=0;swimlaneBody=0;fillColor=none;collapsible=0;dropTarget=0;points=[[0,0.5],[1,0.5]];portConstraint=eastwest;top=0;left=0;right=0;bottom=1;html=1;rounded=0;" parent="99" vertex="1">
                    <mxGeometry y="118" width="227.5" height="20" as="geometry"/>
                </mxCell>
                <mxCell id="113" style="shape=partialRectangle;connectable=0;fillColor=none;top=0;left=0;bottom=0;right=0;editable=1;overflow=hidden;html=1;whiteSpace=wrap;rounded=0;" parent="112" vertex="1">
                    <mxGeometry width="20" height="20" as="geometry">
                        <mxRectangle width="20" height="20" as="alternateBounds"/>
                    </mxGeometry>
                </mxCell>
                <mxCell id="114" value="&lt;b&gt;&lt;i&gt;demo&amp;nbsp; &amp;nbsp; &amp;nbsp; &amp;nbsp; &amp;nbsp; &amp;nbsp; &amp;nbsp; &amp;nbsp; &amp;nbsp;varchar not null&lt;/i&gt;&lt;/b&gt;" style="shape=partialRectangle;connectable=0;fillColor=none;top=0;left=0;bottom=0;right=0;align=left;spacingLeft=6;overflow=hidden;html=1;whiteSpace=wrap;rounded=0;" parent="112" vertex="1">
                    <mxGeometry x="20" width="207.5" height="20" as="geometry">
                        <mxRectangle width="207.5" height="20" as="alternateBounds"/>
                    </mxGeometry>
                </mxCell>
                <mxCell id="115" style="shape=tableRow;horizontal=0;startSize=0;swimlaneHead=0;swimlaneBody=0;fillColor=none;collapsible=0;dropTarget=0;points=[[0,0.5],[1,0.5]];portConstraint=eastwest;top=0;left=0;right=0;bottom=1;html=1;rounded=0;" parent="99" vertex="1">
                    <mxGeometry y="138" width="227.5" height="20" as="geometry"/>
                </mxCell>
                <mxCell id="116" value="" style="shape=partialRectangle;connectable=0;fillColor=none;top=0;left=0;bottom=0;right=0;editable=1;overflow=hidden;html=1;whiteSpace=wrap;rounded=0;" parent="115" vertex="1">
                    <mxGeometry width="20" height="20" as="geometry">
                        <mxRectangle width="20" height="20" as="alternateBounds"/>
                    </mxGeometry>
                </mxCell>
                <mxCell id="117" value="&lt;b&gt;&lt;i&gt;github&amp;nbsp; &amp;nbsp; &amp;nbsp; &amp;nbsp; &amp;nbsp; &amp;nbsp; &amp;nbsp; &amp;nbsp;varchar not null&lt;/i&gt;&lt;/b&gt;" style="shape=partialRectangle;connectable=0;fillColor=none;top=0;left=0;bottom=0;right=0;align=left;spacingLeft=6;overflow=hidden;html=1;whiteSpace=wrap;rounded=0;" parent="115" vertex="1">
                    <mxGeometry x="20" width="207.5" height="20" as="geometry">
                        <mxRectangle width="207.5" height="20" as="alternateBounds"/>
                    </mxGeometry>
                </mxCell>
                <mxCell id="118" value="" style="endArrow=none;html=1;rounded=0;entryX=0.421;entryY=0.001;entryDx=0;entryDy=0;entryPerimeter=0;exitX=0.403;exitY=0.981;exitDx=0;exitDy=0;exitPerimeter=0;" parent="99" edge="1">
                    <mxGeometry width="50" height="50" relative="1" as="geometry">
                        <mxPoint x="114" y="114" as="sourcePoint"/>
                        <mxPoint x="113.72199999999998" y="38.01999999999998" as="targetPoint"/>
                        <Array as="points">
                            <mxPoint x="113" y="114"/>
                        </Array>
                    </mxGeometry>
                </mxCell>
                <mxCell id="119" value="" style="endArrow=none;html=1;rounded=0;entryX=0.409;entryY=0.002;entryDx=0;entryDy=0;entryPerimeter=0;exitX=0.406;exitY=0.993;exitDx=0;exitDy=0;exitPerimeter=0;" parent="99" edge="1">
                    <mxGeometry width="50" height="50" relative="1" as="geometry">
                        <mxPoint x="113.85400000000004" y="157.86000000000013" as="sourcePoint"/>
                        <mxPoint x="114.481" y="38.04000000000019" as="targetPoint"/>
                    </mxGeometry>
                </mxCell>
                <mxCell id="120" value="" style="endArrow=ERone;html=1;rounded=0;edgeStyle=orthogonalEdgeStyle;startArrow=ERoneToMany;startFill=0;endFill=0;entryX=1;entryY=0.5;entryDx=0;entryDy=0;exitX=1;exitY=0.5;exitDx=0;exitDy=0;strokeWidth=2;" parent="1" source="103" target="74" edge="1">
                    <mxGeometry width="50" height="50" relative="1" as="geometry">
                        <mxPoint x="985" y="683" as="sourcePoint"/>
                        <mxPoint x="855" y="154" as="targetPoint"/>
                        <Array as="points">
                            <mxPoint x="1026" y="720"/>
                            <mxPoint x="1026" y="152"/>
                        </Array>
                    </mxGeometry>
                </mxCell>
                <mxCell id="121" value="&lt;i&gt;FEEDMETADATA&lt;/i&gt;" style="shape=table;startSize=38;container=1;collapsible=1;childLayout=tableLayout;fixedRows=1;rowLines=0;fontStyle=1;align=center;resizeLast=1;html=1;whiteSpace=wrap;rounded=0;" parent="1" vertex="1">
                    <mxGeometry x="442" y="654" width="285" height="158" as="geometry"/>
                </mxCell>
                <mxCell id="122" value="" style="shape=tableRow;horizontal=0;startSize=0;swimlaneHead=0;swimlaneBody=0;fillColor=none;collapsible=0;dropTarget=0;points=[[0,0.5],[1,0.5]];portConstraint=eastwest;top=0;left=0;right=0;bottom=1;html=1;swimlaneFillColor=default;strokeColor=#F0F0F0;rounded=0;swimlaneLine=1;" parent="121" vertex="1">
                    <mxGeometry y="38" width="285" height="20" as="geometry"/>
                </mxCell>
                <mxCell id="123" value="PK" style="shape=partialRectangle;connectable=0;fillColor=none;top=0;left=0;bottom=0;right=0;fontStyle=3;overflow=hidden;html=1;whiteSpace=wrap;rounded=0;" parent="122" vertex="1">
                    <mxGeometry width="20" height="20" as="geometry">
                        <mxRectangle width="20" height="20" as="alternateBounds"/>
                    </mxGeometry>
                </mxCell>
                <mxCell id="124" value="&lt;i&gt;feedMetaData&amp;nbsp; &amp;nbsp; &amp;nbsp; Long AI&amp;nbsp; not null&lt;/i&gt;" style="shape=partialRectangle;connectable=0;fillColor=none;top=0;left=0;bottom=0;right=0;align=left;spacingLeft=6;fontStyle=5;overflow=hidden;html=1;whiteSpace=wrap;rounded=0;" parent="122" vertex="1">
                    <mxGeometry x="20" width="265" height="20" as="geometry">
                        <mxRectangle width="265" height="20" as="alternateBounds"/>
                    </mxGeometry>
                </mxCell>
                <mxCell id="125" value="" style="shape=tableRow;horizontal=0;startSize=0;swimlaneHead=0;swimlaneBody=0;fillColor=none;collapsible=0;dropTarget=0;points=[[0,0.5],[1,0.5]];portConstraint=eastwest;top=0;left=0;right=0;bottom=1;html=1;rounded=0;" parent="121" vertex="1">
                    <mxGeometry y="58" width="285" height="20" as="geometry"/>
                </mxCell>
                <mxCell id="126" value="&lt;b&gt;&lt;i&gt;FK&lt;/i&gt;&lt;/b&gt;" style="shape=partialRectangle;connectable=0;fillColor=none;top=0;left=0;bottom=0;right=0;editable=1;overflow=hidden;html=1;whiteSpace=wrap;rounded=0;" parent="125" vertex="1">
                    <mxGeometry width="20" height="20" as="geometry">
                        <mxRectangle width="20" height="20" as="alternateBounds"/>
                    </mxGeometry>
                </mxCell>
                <mxCell id="127" value="&lt;i style=&quot;&quot;&gt;&lt;b&gt;actionUserId&amp;nbsp; &amp;nbsp; &amp;nbsp; &amp;nbsp;Long not null&lt;/b&gt;&lt;/i&gt;" style="shape=partialRectangle;connectable=0;fillColor=none;top=0;left=0;bottom=0;right=0;align=left;spacingLeft=6;overflow=hidden;html=1;whiteSpace=wrap;rounded=0;" parent="125" vertex="1">
                    <mxGeometry x="20" width="265" height="20" as="geometry">
                        <mxRectangle width="265" height="20" as="alternateBounds"/>
                    </mxGeometry>
                </mxCell>
                <mxCell id="128" style="shape=tableRow;horizontal=0;startSize=0;swimlaneHead=0;swimlaneBody=0;fillColor=none;collapsible=0;dropTarget=0;points=[[0,0.5],[1,0.5]];portConstraint=eastwest;top=0;left=0;right=0;bottom=1;html=1;rounded=0;" parent="121" vertex="1">
                    <mxGeometry y="78" width="285" height="20" as="geometry"/>
                </mxCell>
                <mxCell id="129" value="&lt;b&gt;&lt;i&gt;FK&lt;/i&gt;&lt;/b&gt;" style="shape=partialRectangle;connectable=0;fillColor=none;top=0;left=0;bottom=0;right=0;editable=1;overflow=hidden;html=1;whiteSpace=wrap;rounded=0;" parent="128" vertex="1">
                    <mxGeometry width="20" height="20" as="geometry">
                        <mxRectangle width="20" height="20" as="alternateBounds"/>
                    </mxGeometry>
                </mxCell>
                <mxCell id="130" value="&lt;b&gt;&lt;i&gt;feedId&amp;nbsp; &amp;nbsp; &amp;nbsp; &amp;nbsp; &amp;nbsp; &amp;nbsp; &amp;nbsp; &amp;nbsp; &amp;nbsp; Long not null&lt;/i&gt;&lt;/b&gt;" style="shape=partialRectangle;connectable=0;fillColor=none;top=0;left=0;bottom=0;right=0;align=left;spacingLeft=6;overflow=hidden;html=1;whiteSpace=wrap;rounded=0;" parent="128" vertex="1">
                    <mxGeometry x="20" width="265" height="20" as="geometry">
                        <mxRectangle width="265" height="20" as="alternateBounds"/>
                    </mxGeometry>
                </mxCell>
                <mxCell id="131" style="shape=tableRow;horizontal=0;startSize=0;swimlaneHead=0;swimlaneBody=0;fillColor=none;collapsible=0;dropTarget=0;points=[[0,0.5],[1,0.5]];portConstraint=eastwest;top=0;left=0;right=0;bottom=1;html=1;rounded=0;" parent="121" vertex="1">
                    <mxGeometry y="98" width="285" height="20" as="geometry"/>
                </mxCell>
                <mxCell id="132" value="" style="shape=partialRectangle;connectable=0;fillColor=none;top=0;left=0;bottom=0;right=0;editable=1;overflow=hidden;html=1;whiteSpace=wrap;rounded=0;" parent="131" vertex="1">
                    <mxGeometry width="20" height="20" as="geometry">
                        <mxRectangle width="20" height="20" as="alternateBounds"/>
                    </mxGeometry>
                </mxCell>
                <mxCell id="133" value="&lt;b style=&quot;&quot;&gt;&lt;i&gt;isLike&amp;nbsp; &amp;nbsp; &amp;nbsp; &amp;nbsp; &amp;nbsp; &amp;nbsp; &amp;nbsp; &amp;nbsp; &amp;nbsp; &amp;nbsp;boolean not null&lt;/i&gt;&lt;/b&gt;" style="shape=partialRectangle;connectable=0;fillColor=none;top=0;left=0;bottom=0;right=0;align=left;spacingLeft=6;overflow=hidden;html=1;whiteSpace=wrap;rounded=0;" parent="131" vertex="1">
                    <mxGeometry x="20" width="265" height="20" as="geometry">
                        <mxRectangle width="265" height="20" as="alternateBounds"/>
                    </mxGeometry>
                </mxCell>
                <mxCell id="134" style="shape=tableRow;horizontal=0;startSize=0;swimlaneHead=0;swimlaneBody=0;fillColor=none;collapsible=0;dropTarget=0;points=[[0,0.5],[1,0.5]];portConstraint=eastwest;top=0;left=0;right=0;bottom=1;html=1;rounded=0;" parent="121" vertex="1">
                    <mxGeometry y="118" width="285" height="20" as="geometry"/>
                </mxCell>
                <mxCell id="135" style="shape=partialRectangle;connectable=0;fillColor=none;top=0;left=0;bottom=0;right=0;editable=1;overflow=hidden;html=1;whiteSpace=wrap;rounded=0;" parent="134" vertex="1">
                    <mxGeometry width="20" height="20" as="geometry">
                        <mxRectangle width="20" height="20" as="alternateBounds"/>
                    </mxGeometry>
                </mxCell>
                <mxCell id="136" value="&lt;b&gt;&lt;i&gt;comment&amp;nbsp; &amp;nbsp; &amp;nbsp; &amp;nbsp; &amp;nbsp; &amp;nbsp; &amp;nbsp;varchar&amp;nbsp;&lt;/i&gt;&lt;/b&gt;" style="shape=partialRectangle;connectable=0;fillColor=none;top=0;left=0;bottom=0;right=0;align=left;spacingLeft=6;overflow=hidden;html=1;whiteSpace=wrap;rounded=0;" parent="134" vertex="1">
                    <mxGeometry x="20" width="265" height="20" as="geometry">
                        <mxRectangle width="265" height="20" as="alternateBounds"/>
                    </mxGeometry>
                </mxCell>
                <mxCell id="137" style="shape=tableRow;horizontal=0;startSize=0;swimlaneHead=0;swimlaneBody=0;fillColor=none;collapsible=0;dropTarget=0;points=[[0,0.5],[1,0.5]];portConstraint=eastwest;top=0;left=0;right=0;bottom=1;html=1;rounded=0;" parent="121" vertex="1">
                    <mxGeometry y="138" width="285" height="20" as="geometry"/>
                </mxCell>
                <mxCell id="138" value="" style="shape=partialRectangle;connectable=0;fillColor=none;top=0;left=0;bottom=0;right=0;editable=1;overflow=hidden;html=1;whiteSpace=wrap;rounded=0;" parent="137" vertex="1">
                    <mxGeometry width="20" height="20" as="geometry">
                        <mxRectangle width="20" height="20" as="alternateBounds"/>
                    </mxGeometry>
                </mxCell>
                <mxCell id="139" value="&lt;b&gt;&lt;i&gt;dateCreated&amp;nbsp; &amp;nbsp; &amp;nbsp; &amp;nbsp; datetime not null&lt;/i&gt;&lt;/b&gt;" style="shape=partialRectangle;connectable=0;fillColor=none;top=0;left=0;bottom=0;right=0;align=left;spacingLeft=6;overflow=hidden;html=1;whiteSpace=wrap;rounded=0;" parent="137" vertex="1">
                    <mxGeometry x="20" width="265" height="20" as="geometry">
                        <mxRectangle width="265" height="20" as="alternateBounds"/>
                    </mxGeometry>
                </mxCell>
                <mxCell id="140" value="" style="endArrow=none;html=1;rounded=0;exitX=0.422;exitY=0.996;exitDx=0;exitDy=0;exitPerimeter=0;entryX=0.426;entryY=-0.001;entryDx=0;entryDy=0;entryPerimeter=0;" parent="121" source="137" target="122" edge="1">
                    <mxGeometry width="50" height="50" relative="1" as="geometry">
                        <mxPoint x="26" y="88" as="sourcePoint"/>
                        <mxPoint x="121" y="38" as="targetPoint"/>
                    </mxGeometry>
                </mxCell>
                <mxCell id="141" value="" style="endArrow=ERone;html=1;rounded=0;edgeStyle=orthogonalEdgeStyle;startArrow=ERoneToMany;startFill=0;endFill=0;exitX=0;exitY=0.5;exitDx=0;exitDy=0;entryX=1;entryY=0.5;entryDx=0;entryDy=0;strokeWidth=2;" parent="1" source="128" target="57" edge="1">
                    <mxGeometry width="50" height="50" relative="1" as="geometry">
                        <mxPoint x="437" y="595" as="sourcePoint"/>
                        <mxPoint x="487" y="545" as="targetPoint"/>
                        <Array as="points">
                            <mxPoint x="399" y="742"/>
                            <mxPoint x="399" y="585"/>
                            <mxPoint x="692" y="585"/>
                            <mxPoint x="692" y="429"/>
                        </Array>
                    </mxGeometry>
                </mxCell>
                <mxCell id="142" value="&lt;i&gt;BLOG&lt;/i&gt;" style="shape=table;startSize=38;container=1;collapsible=1;childLayout=tableLayout;fixedRows=1;rowLines=0;fontStyle=1;align=center;resizeLast=1;html=1;whiteSpace=wrap;rounded=0;" parent="1" vertex="1">
                    <mxGeometry x="732" y="381" width="266" height="186.5" as="geometry"/>
                </mxCell>
                <mxCell id="143" value="" style="shape=tableRow;horizontal=0;startSize=0;swimlaneHead=0;swimlaneBody=0;fillColor=none;collapsible=0;dropTarget=0;points=[[0,0.5],[1,0.5]];portConstraint=eastwest;top=0;left=0;right=0;bottom=1;html=1;swimlaneFillColor=default;strokeColor=#F0F0F0;rounded=0;swimlaneLine=1;" parent="142" vertex="1">
                    <mxGeometry y="38" width="266" height="20" as="geometry"/>
                </mxCell>
                <mxCell id="144" value="&lt;i&gt;PK&lt;/i&gt;" style="shape=partialRectangle;connectable=0;fillColor=none;top=0;left=0;bottom=0;right=0;fontStyle=1;overflow=hidden;html=1;whiteSpace=wrap;rounded=0;" parent="143" vertex="1">
                    <mxGeometry width="22" height="20" as="geometry">
                        <mxRectangle width="22" height="20" as="alternateBounds"/>
                    </mxGeometry>
                </mxCell>
                <mxCell id="145" value="&lt;i&gt;blogId&amp;nbsp; &amp;nbsp; &amp;nbsp; &amp;nbsp; &amp;nbsp; &amp;nbsp; &amp;nbsp; &amp;nbsp; &amp;nbsp; &amp;nbsp;Long AI not null&lt;/i&gt;" style="shape=partialRectangle;connectable=0;fillColor=none;top=0;left=0;bottom=0;right=0;align=left;spacingLeft=6;fontStyle=5;overflow=hidden;html=1;whiteSpace=wrap;rounded=0;" parent="143" vertex="1">
                    <mxGeometry x="22" width="244" height="20" as="geometry">
                        <mxRectangle width="244" height="20" as="alternateBounds"/>
                    </mxGeometry>
                </mxCell>
                <mxCell id="146" value="" style="shape=tableRow;horizontal=0;startSize=0;swimlaneHead=0;swimlaneBody=0;fillColor=none;collapsible=0;dropTarget=0;points=[[0,0.5],[1,0.5]];portConstraint=eastwest;top=0;left=0;right=0;bottom=1;html=1;rounded=0;" parent="142" vertex="1">
                    <mxGeometry y="58" width="266" height="20" as="geometry"/>
                </mxCell>
                <mxCell id="147" value="&lt;b&gt;&lt;i&gt;FK&lt;/i&gt;&lt;/b&gt;" style="shape=partialRectangle;connectable=0;fillColor=none;top=0;left=0;bottom=0;right=0;editable=1;overflow=hidden;html=1;whiteSpace=wrap;rounded=0;" parent="146" vertex="1">
                    <mxGeometry width="22" height="20" as="geometry">
                        <mxRectangle width="22" height="20" as="alternateBounds"/>
                    </mxGeometry>
                </mxCell>
                <mxCell id="148" value="&lt;b&gt;&lt;i&gt;userId&amp;nbsp; &amp;nbsp; &amp;nbsp; &amp;nbsp; &amp;nbsp; &amp;nbsp; &amp;nbsp; &amp;nbsp; &amp;nbsp; &amp;nbsp;Long not null&lt;/i&gt;&lt;/b&gt;" style="shape=partialRectangle;connectable=0;fillColor=none;top=0;left=0;bottom=0;right=0;align=left;spacingLeft=6;overflow=hidden;html=1;whiteSpace=wrap;rounded=0;" parent="146" vertex="1">
                    <mxGeometry x="22" width="244" height="20" as="geometry">
                        <mxRectangle width="244" height="20" as="alternateBounds"/>
                    </mxGeometry>
                </mxCell>
                <mxCell id="149" style="shape=tableRow;horizontal=0;startSize=0;swimlaneHead=0;swimlaneBody=0;fillColor=none;collapsible=0;dropTarget=0;points=[[0,0.5],[1,0.5]];portConstraint=eastwest;top=0;left=0;right=0;bottom=1;html=1;rounded=0;" parent="142" vertex="1">
                    <mxGeometry y="78" width="266" height="20" as="geometry"/>
                </mxCell>
                <mxCell id="150" style="shape=partialRectangle;connectable=0;fillColor=none;top=0;left=0;bottom=0;right=0;editable=1;overflow=hidden;html=1;whiteSpace=wrap;rounded=0;" parent="149" vertex="1">
                    <mxGeometry width="22" height="20" as="geometry">
                        <mxRectangle width="22" height="20" as="alternateBounds"/>
                    </mxGeometry>
                </mxCell>
                <mxCell id="151" value="&lt;i&gt;&lt;b&gt;headline&amp;nbsp; &amp;nbsp; &amp;nbsp; &amp;nbsp; &amp;nbsp; &amp;nbsp; &amp;nbsp; &amp;nbsp;varchar not null&lt;/b&gt;&lt;/i&gt;" style="shape=partialRectangle;connectable=0;fillColor=none;top=0;left=0;bottom=0;right=0;align=left;spacingLeft=6;overflow=hidden;html=1;whiteSpace=wrap;rounded=0;" parent="149" vertex="1">
                    <mxGeometry x="22" width="244" height="20" as="geometry">
                        <mxRectangle width="244" height="20" as="alternateBounds"/>
                    </mxGeometry>
                </mxCell>
                <mxCell id="152" style="shape=tableRow;horizontal=0;startSize=0;swimlaneHead=0;swimlaneBody=0;fillColor=none;collapsible=0;dropTarget=0;points=[[0,0.5],[1,0.5]];portConstraint=eastwest;top=0;left=0;right=0;bottom=1;html=1;rounded=0;" parent="142" vertex="1">
                    <mxGeometry y="98" width="266" height="20" as="geometry"/>
                </mxCell>
                <mxCell id="153" style="shape=partialRectangle;connectable=0;fillColor=none;top=0;left=0;bottom=0;right=0;editable=1;overflow=hidden;html=1;whiteSpace=wrap;rounded=0;" parent="152" vertex="1">
                    <mxGeometry width="22" height="20" as="geometry">
                        <mxRectangle width="22" height="20" as="alternateBounds"/>
                    </mxGeometry>
                </mxCell>
                <mxCell id="154" value="&lt;b&gt;&lt;i&gt;bio&amp;nbsp; &amp;nbsp; &amp;nbsp; &amp;nbsp; &amp;nbsp; &amp;nbsp; &amp;nbsp; &amp;nbsp; &amp;nbsp; &amp;nbsp; &amp;nbsp; &amp;nbsp; varchar not null&lt;/i&gt;&lt;/b&gt;" style="shape=partialRectangle;connectable=0;fillColor=none;top=0;left=0;bottom=0;right=0;align=left;spacingLeft=6;overflow=hidden;html=1;whiteSpace=wrap;rounded=0;" parent="152" vertex="1">
                    <mxGeometry x="22" width="244" height="20" as="geometry">
                        <mxRectangle width="244" height="20" as="alternateBounds"/>
                    </mxGeometry>
                </mxCell>
                <mxCell id="155" style="shape=tableRow;horizontal=0;startSize=0;swimlaneHead=0;swimlaneBody=0;fillColor=none;collapsible=0;dropTarget=0;points=[[0,0.5],[1,0.5]];portConstraint=eastwest;top=0;left=0;right=0;bottom=1;html=1;rounded=0;" parent="142" vertex="1">
                    <mxGeometry y="118" width="266" height="20" as="geometry"/>
                </mxCell>
                <mxCell id="156" style="shape=partialRectangle;connectable=0;fillColor=none;top=0;left=0;bottom=0;right=0;editable=1;overflow=hidden;html=1;whiteSpace=wrap;rounded=0;" parent="155" vertex="1">
                    <mxGeometry width="22" height="20" as="geometry">
                        <mxRectangle width="22" height="20" as="alternateBounds"/>
                    </mxGeometry>
                </mxCell>
                <mxCell id="157" value="&lt;b&gt;&lt;i&gt;city&amp;nbsp; &amp;nbsp; &amp;nbsp; &amp;nbsp; &amp;nbsp; &amp;nbsp; &amp;nbsp; &amp;nbsp; &amp;nbsp; &amp;nbsp; &amp;nbsp; &amp;nbsp;varchar&lt;/i&gt;&lt;/b&gt;" style="shape=partialRectangle;connectable=0;fillColor=none;top=0;left=0;bottom=0;right=0;align=left;spacingLeft=6;overflow=hidden;html=1;whiteSpace=wrap;rounded=0;" parent="155" vertex="1">
                    <mxGeometry x="22" width="244" height="20" as="geometry">
                        <mxRectangle width="244" height="20" as="alternateBounds"/>
                    </mxGeometry>
                </mxCell>
                <mxCell id="158" style="shape=tableRow;horizontal=0;startSize=0;swimlaneHead=0;swimlaneBody=0;fillColor=none;collapsible=0;dropTarget=0;points=[[0,0.5],[1,0.5]];portConstraint=eastwest;top=0;left=0;right=0;bottom=1;html=1;rounded=0;" parent="142" vertex="1">
                    <mxGeometry y="138" width="266" height="29" as="geometry"/>
                </mxCell>
                <mxCell id="159" style="shape=partialRectangle;connectable=0;fillColor=none;top=0;left=0;bottom=0;right=0;editable=1;overflow=hidden;html=1;whiteSpace=wrap;rounded=0;" parent="158" vertex="1">
                    <mxGeometry width="22" height="29" as="geometry">
                        <mxRectangle width="22" height="29" as="alternateBounds"/>
                    </mxGeometry>
                </mxCell>
                <mxCell id="160" value="&lt;b&gt;&lt;i&gt;country&amp;nbsp; &amp;nbsp; &amp;nbsp; &amp;nbsp; &amp;nbsp; &amp;nbsp; &amp;nbsp; &amp;nbsp; varchar&lt;/i&gt;&lt;/b&gt;" style="shape=partialRectangle;connectable=0;fillColor=none;top=0;left=0;bottom=0;right=0;align=left;spacingLeft=6;overflow=hidden;html=1;whiteSpace=wrap;rounded=0;" parent="158" vertex="1">
                    <mxGeometry x="22" width="244" height="29" as="geometry">
                        <mxRectangle width="244" height="29" as="alternateBounds"/>
                    </mxGeometry>
                </mxCell>
                <mxCell id="161" style="shape=tableRow;horizontal=0;startSize=0;swimlaneHead=0;swimlaneBody=0;fillColor=none;collapsible=0;dropTarget=0;points=[[0,0.5],[1,0.5]];portConstraint=eastwest;top=0;left=0;right=0;bottom=1;html=1;rounded=0;" parent="142" vertex="1">
                    <mxGeometry y="167" width="266" height="20" as="geometry"/>
                </mxCell>
                <mxCell id="162" style="shape=partialRectangle;connectable=0;fillColor=none;top=0;left=0;bottom=0;right=0;editable=1;overflow=hidden;html=1;whiteSpace=wrap;rounded=0;" parent="161" vertex="1">
                    <mxGeometry width="22" height="20" as="geometry">
                        <mxRectangle width="22" height="20" as="alternateBounds"/>
                    </mxGeometry>
                </mxCell>
                <mxCell id="163" value="&lt;b&gt;&lt;i&gt;picture&amp;nbsp; &amp;nbsp; &amp;nbsp; &amp;nbsp; &amp;nbsp; &amp;nbsp; &amp;nbsp; &amp;nbsp; &amp;nbsp;varchar&lt;/i&gt;&lt;/b&gt;" style="shape=partialRectangle;connectable=0;fillColor=none;top=0;left=0;bottom=0;right=0;align=left;spacingLeft=6;overflow=hidden;html=1;whiteSpace=wrap;rounded=0;" parent="161" vertex="1">
                    <mxGeometry x="22" width="244" height="20" as="geometry">
                        <mxRectangle width="244" height="20" as="alternateBounds"/>
                    </mxGeometry>
                </mxCell>
                <mxCell id="164" value="" style="endArrow=none;html=1;rounded=0;entryX=0.468;entryY=0.025;entryDx=0;entryDy=0;entryPerimeter=0;exitX=0.463;exitY=0.999;exitDx=0;exitDy=0;exitPerimeter=0;" parent="142" source="161" target="143" edge="1">
                    <mxGeometry width="50" height="50" relative="1" as="geometry">
                        <mxPoint x="114" y="114" as="sourcePoint"/>
                        <mxPoint x="113.72199999999998" y="38.01999999999998" as="targetPoint"/>
                    </mxGeometry>
                </mxCell>
                <mxCell id="169" value="" style="endArrow=none;html=1;rounded=0;fontSize=12;startSize=8;endSize=8;edgeStyle=orthogonalEdgeStyle;entryX=0;entryY=0.5;entryDx=0;entryDy=0;exitX=1;exitY=0.5;exitDx=0;exitDy=0;strokeWidth=2;startArrow=ERone;startFill=0;endFill=0;" parent="1" edge="1">
                    <mxGeometry width="50" height="50" relative="1" as="geometry">
                        <mxPoint x="304.9499999999998" y="216" as="sourcePoint"/>
                        <mxPoint x="570" y="150" as="targetPoint"/>
                        <Array as="points">
                            <mxPoint x="320" y="216"/>
                            <mxPoint x="320" y="150"/>
                        </Array>
                    </mxGeometry>
                </mxCell>
                <mxCell id="173" value="" style="shape=image;verticalLabelPosition=bottom;labelBackgroundColor=default;verticalAlign=top;aspect=fixed;imageAspect=0;image=data:image/png,iVBORw0KGgoAAAANSUhEUgAACioAAAEZCAYAAAAD9e9oAAAACXBIWXMAAAsTAAALEwEAmpwYAAAAAXNSR0IArs4c6QAAAARnQU1BAACxjwv8YQUAAI4gSURBVHgB7P1dbFTnnu/7/mJPx8Y2sWdhXD0FxCQTi601HauTRchMUAjhwoi0tI8SkoB01pIAKcnNOedi3yS5O3fAzbnqbinhbu1zJCBY2mt1Cx9zkThkn54LcMKRwmzJMk0gzlYvv5VcmCogTCd7lD0DZafeXON5nhrjGd+PtLVrhd+srsdVz3/8n2eMGvXE9r6nfxYAAAAAAAAAAAAAAAAAAIAFTQIAAAAAAAAAAAAAAAAAALCECxUBAAAAAAAAAAAAAAAAAIA1XKgIAAAAAAAAAAAAAAAAAACs4UJFAAAAAAAAAAAAAAAAAABgDRcqAgAAAAAAAAAAAAAAAAAAa7hQEQAAAAAAAAAAAAAAAAAAWMOFigAAAAAAAAAAAAAAAAAAwBouVAQAAAAAAAAAAAAAAAAAANZwoSIAAAAAAAAAAAAAAAAAALCGCxUBAAAAAAAAAAAAAAAAAIA1XKgIAAAAAAAAAAAAAAAAAACs4UJFAAAAAAAAAAAAAAAAAABgDRcqAgAAAAAAAAAAAAAAAAAAa7hQEQAAAAAAAAAAAAAAAAAAWMOFigAAAAAAAAAAAAAAAAAAwBouVAQAAAAAAAAAAAAAAAAAANZwoSIAAAAAAAAAAAAAAAAAALCGCxUBAAAAAAAAAAAAAAAAAIA1XKgIAAAAAAAAAAAAAAAAAACs+U0toc273tDevnahPvnblzQyPiNndu7ToYGe4MGcrg+PacJaple7Du5V4aNRfoxmMo8+g/nbujRyVbMlniVU5tFYUZf5bzU8NiHbqEVomAp1xY6deu3Qc1quwNfP68sJe5md+97WwCZVnMdGMr0v6uCrfWpXXre/uqDShwMzGdtjevTfAY+VrysmPa5RXnHUFz3iYe9vfUye9v7M2xBcz1tnfZFH89b062Ufwho3tegx1jMhMvQQ9BCIkQp1xaRHNQpAeI7mbRH2ROGa697f+hrtF9Z7f0/3VhBChbWJFbbPQT5eu3nF9blizqtGnOt565eaLlTs2LRNO/pTQn0yd7+WU13p4P16NnjQrCmrmQ6ltvVrR6rSGM1kHn0GM4sqJGZNZx6NFXVpnpIL1CI0TIW6Yke3evv7VahKTVN2M129Qf1dLvXl57GRTHtKW4PXklJGi+UOB4Yytsf06L8DHmtycmh/XKO84qgvesTD3t/6mDzt/Zm3Ibiet876Io/m7XpeC/sQDdXk+jDIeqb+DD0EPQRipEJdMelRjQIQnqN5W4Q9Ubjmuve3vkb7hfXe39O9FYRQYW1ihe1zkI/Xbl5xfa6Y86oR53re+qWmCxURM9lp3ZhcUuEq3qzVTE6ZqUndmJfy87kyT2Imk5ufCl5LIZBR2WcxlAGAxlvQzOSkfgoezWXtZrIzQf0tlPr5hXJPYiYT1N0fgteSUV6ZvKxmnI0JAKLAw97f3ZiABnHWF/k4b9mHwGqsZ0Jk6CHoIQAAXmFPFL5ztkZz2PsDjeHuHCRC4LwqPPbE9r6nf64W2n7gAx1+nu/R1Stz7YxOj34nRNjuw/pwP99dqdvNz3Xq3GXZRi1Cw2S+0dlPR3VLQHDIePdjvc4hA567+fkJfXZFlr2kdz7a79+3hx31RQjB096feRsC8xaNQC0C4of9QzRMRtfOfKKLt2TX9gN678gL3FERMMLRvHWIPVGsRe9fL0/3VhDCTX1x8qz8mU7PaOj9I/LulD7niuvmZw/h27x1izsqJkKLOntS6miWlnIZzd19aC/T1q10V2vw4IGy0wu6X+rlGMlsUFf6KbUFj+5np5Ut+STryLQ2CwCirKWzR6mVAqzM3F09tJVp6VRPqkPNWlIuM6fShwMzmbbutFZK/R1NL9xTKUYyhsfEIQNAtPnY+xseE4UcEeSsL4rrvGUfArViPRMiQw9BDwEA8Ap7ovCe4TVahYzZ3r+VCzQQOWbPQW5US5NgAedV4QuOg4mwVa+8tXLVevm7OxrKDB7Q0eVvFle4gthIZlBDx1a+bVL+GzvrywBAlG3Zc2jljqIVvrFjJLNlj95c/vZ8hW/9GsoMDh1f+QZNhbsYGckYHxMARJmPvb/5MQFR46wvivG8ZR8CNWE9EyJDD0EPAQDwCnui8J75NVq5jPHeH4gY4+cgYQXnVeELrmUGAAAAAAAAAAAAAAAAAADWPLG97+mfq4W2H/iAK59DKP9tXETG7sP6cD9fYalbhSvyTaIWoWEqfDsIybP73Y/51iO8V/4bxia9pHc+8vCOUo76IoTgae/PvA2BeYtGoBYB8cP+IRqmwl1KTNp+QO9xxxPAEEfz1iH2RLEWvX+9PN1bQQgV7iIfS89o6H0P70jPueK6+dlD+DZv3eKOigAAAAAAAAAAAAAAAAAAwJrfCP7ZuU+HBnqCB3O6PjymCWuZXu06uFd97VL+9iWNjM+UeBIzmc273tDelYAujVzVbIlnMZUBgMbbqdcOPaflCnz9vL6csJfZue9tDWwKHsx/q+GxidKvxkSm90UdfLVP7crr9lcXVPpwYCbjbEwAEAUe9v7uxgQ0iLO+yMd5yz4EVmM9EyJDD0EPAQDwCnui8J2zNZrD3h9oDHfnIBEC51XhMS5U9FFXWjv6C/dObdaU1UyHUtv6tSMlZe5+XeZJzGQ6Nm0LXkshsKhCYtZiBgAar1u9/f3Lt/5vmrKb6eoN6u9yqS/7JGYy7SltDV5LShktljscGMo4GxMARIGHvb+7MQEN4qwv8nHesg+B1VjPhMjQQ9BDAAC8wp4ofOdsjeaw9wcaw905SITAeVV4jAsVfZSd1o3JJRW+9Zu1mskpMzWpG/NSfj5X5knMZHLzU8FrKQQyKvsshjIA0HgLmpmc1E/Bo7ms3Ux2Jqi/hVI/v1DuScxkgrr7Q/BaMsork5fVjLMxAUAUeNj7uxsT0CDO+iIf5y37EFiN9UyIDD0EPQQAwCvsicJ3ztZoDnt/oDHcnYNECJxXhcee2N739M/VQtsPfKDDz6eE+mSundHp0e+ECNt9WB/uf1ao083PdercZdlGLULDZL7R2U9HdUtAcMh492O9ziEDnrv5+Ql9dkWWvaR3Ptov76aTo74IIXja+zNvQ2DeohGoRUD8sH+Ihsno2plPdPGW7Np+QO8deUHsvgImOJq3DrEnirXo/evl6d4KQripL06elT/T6RkNvX9E3p3S51xx3fzsIXybt25xR8VEaFFnT0odzdJSLqO5uw/tZdq6le5qDR48UHZ6QfdLvRwjmQ3qSj+ltuDR/ey0siWfZB2Z1mYBQJS1dPYotVKAlZm7q4e2Mi2d6kl1qFlLymXmVPpwYCbT1p3WSqm/o+mFeyrFSMbwmDhkAIg2H3t/w2OikCOCnPVFcZ237EOgVqxnQmToIeghAABeYU8U3jO8RquQMdv7t3KBBiLH7DnIjWppEizgvCp8wXEwEbbqlbdWrlovf3dHQ5nBAzq6/M3iClcQG8kMaujYyrdNyn9jZ30ZAIiyLXsOrdxRtMI3doxktuzRm8vfnq/wrV9DmcGh4yvfoKlwFyMjGeNjAoAo87H3Nz8mIGqc9UUxnrfsQ6AmrGdCZOgh6CEAAF5hTxTeM79GK5cx3vsDEWP8HCSs4LwqfMG1zAAAAAAAAAAAAAAAAAAAwJontvc9/XO10PYDH3Dlcwjlv42LyNh9WB/u5yssdatwRb5J1CI0TIVvByF5dr/7Md96hPfKf8PYpJf0zkce3lHKUV+EEDzt/Zm3ITBv0QjUIiB+2D9Ew1S4S4lJ2w/oPe54AhjiaN46xJ4o1qL3r5eneysIocJd5GPpGQ297+Ed6TlXXDc/ewjf5q1b/PSzA80bfqt0Oq+wlnIZzZX8cXegwZpbg894WqE9uKPphXsCIqepRRuDz3joT/lSTpm5u6KSA4i637QGNS980VMuM6fEta+G+iJ6f6yXmXkr3c9OK3tfycJ6BjCGHgIAbGhSy0bqKxAvzFv4j30IwJRmtXIOMvpMnStm/9AThuatHig7vaCkHQa5UNGBzv/pgI7+Twqt5jsz7tynQwM9wYM5XR8e04S1TK92HdyrvnYpf/uSRsZnSjyJmczmXW9o70pAl0auarbEs5jKoA59e3T02B6Fxp1MEFXdz+mNY88ptJq/bbNTrx16TssV+Pp5fTlhL7Nz39sa2BQ8mP9Ww2MTpV+NiUzvizr4ap/aldftry6o9OHATMbZmACPPb3nuI6GPrT7d/eAmhjqi5Lc+7sbk1/MzNuE3hHB9XrGWV/k47xlHyLqXPcQrGdCZOgh6CEQI90a+LvjGlBYCV2jAQ3hft6yJwrXXO9DOFujOez9gRV9euXYcb2ikCJ4DtIrps4VR27/kB6iPobmbULvzMiFij7qSmtHf+Heqc2asprpUGpbv3akguPe3a/LPImZTMembcFrKQQWVUjMWswAQON1q7e/f/nW/01TdjNdvUH9XS71ZZ/ETKY9pa3Ba0kFm2uL5Q4HhjLOxgQAUeBh7+9uTECDOOuLfJy37ENgNdYzITL0EPQQAACvsCcK3zlbozns/YHGcHcOEiFwXhUe40JFH2WndWNySYVv/WatZnLKTE3qxryUn8+VeRIzmdz8VPBaCoGMyj6LoQwANN6CZiYn9VPwaC5rN5OdCepvodTPL5R7EjOZoO7+ELyWjPLK5GU142xMABAFHvb+7sYENIizvsjHecs+BFZjPRMiQw9BDwEA8Ap7ovCdszWaw94faAx35yARAudV4bEntvc9/XO10PYDH+jw8ymhPjX/bFsJu9/9WK8/G/55UMXuw/pw/7NCnUL8ZPOq+lLleahFaJiab5deQnF9CfM8iIziYzPgq/p/+vUlvfPRfq1MkWo/T1Sc9UiIvoje3xFPe//65+0zGnr/iB635JWeh3m71nrWM8Aq1KI11tNDAA3C/iEaJkxdXEd93X5A7x15Qey+AiY4mrcOsSeKtdzsQ/jI070VhBDip18jeQ5y9Rz3Roi/b9L3D/3sIULM21XrLn76Gd5qUWdPSh3N0lIuo7m7D+1l2rqV7moNHjxQdnpB90u9HCOZDepKP6W24NH97LSyJZ9kHZnWZgFAlLV09ii1UoCVmburh7YyLZ3qSXWoWUvKZeZU+nBgJtPWndZKqb+j6YV7KsVIxvCYOGQAiDYfe3/DY6KQI4Kc9UVxnbfsQ6BWrGdCZOgh6CEAAF5hTxTeM7xGq5Ax2/u3coEGIsfsOciNamkSLOC8KnzBcTARtuqVt1auWi9/ZxZDmcEDOrp81X6FK3+NZAY1dGzl2yblv2mzvgwARNmWPYdWvm1T4Rs7RjJb9ujN5W9xVPi2rqHM4NDxlW/QVPj2kJGM8TEBQJT52PubHxMQNc76ohjPW/YhUBPWMyEy9BD0EAAAr7AnCu+ZX6OVyxjv/YGIMX4OElZwXhW+4EJFB9rS/0F/fPlvasr+OH1d39xcFBArHengM/5ybdk7t/Tf//zvAmLlyd/q98FnvKZK/mBGf/7m30QlBxBnnemXg2N7LckfNXP9a9G+FllHX0TvD5Nqn7eFlvxP+lda8sdYzwDG0EMAgA1Pqvv3QX39XS1Z6isQDcxb+I99CMCUDqWDfak/1hLlHGTjrOdcMfuHCbCOeas7uv2nP4tPxGNPbO97+udqoVW/mY51Wwr+v1rvZrr2m7vFv9de/lu9CG33YX24n6+wOLHmyvxV9aXClf2/ygJRtfabRMX1pcK3jBAfxcdmAGu/LfeS3vnol7tEVfgm3a+yyUTv3yD0/mvuEPCMht5/fJeo8ncYKGDehlnPAKskvhaF6SGABqGHQCyEqK/bD+g97ngCNEA8+iL2RBFG/fsQPmJvBSHE4hzk6jmeSOwfrkIPseZXIFatuyr8ioTHmgQAAAAAAAAAAAAAAAAAAGAJP/3swM8P72nx/l/K/nvLho1qM/lO7NynQwM9wYM5XR8e04S1TK92HdyrvnYpf/uSRsZnSjyJmczmXW9o70pAl0auarbEs5jKoA5/CT7j98p/xpta29XxZK33FQUiaOlH5fIP9FO5f2/ZoI1mC7leO/Sclivw9fP6csJeZue+tzWwKXgw/62GxyZKvxoTmd4XdfDVPrUrr9tfXVDpw4GZjLMxAR77y/1F3XtY7l9/ow0bN7CQKKdKX0TvX0PG2Zj8UnneNqm1vUO05GW4Xs8464t8nLfsQ0Sd6x6C9UyIDD0EPQRiZEk/5vJ6UHZjijUaED3u5y17onDN9T6EszWaw94fWPEX3V+8p7LTKcbnIL1S5VxxfPcP6SHqU2XeNrWqveNJsR1fGmtXB+5c/68Vf7bN+K1Ou9La0V94wmZNWc10KLWtXztSUubu12WexEymY9O24LUUAosqJGYtZlCH7/+kf+Qnm+Gz7HX9c6XbpRv/+adu9fb3L9/6v2nKbqarN6i/y6W+7JOYybSntDV4LSlltFjucGAo42xMgMe+/5e/56df61WlL6L3ryHjbEx+qTxv+cmVilyvZ5z1RT7OW/Yhos51D8F6JkSGHoIeAjGS1Z//qdJPv7JGA6LH/bxlTxSuud6HcLZGc9j7Ayu+15/+ocJPv8b4HKRXqpwrju/+IT1EfarM21U/74y1uFDRR9lp3ZhcUuFbv1mrmZwyU5O6MS/l53NlnsRMJjc/FbyWQiCjss9iKAMAjbegmcnJ5W/lzGXtZrIzQf0tlPr5hXJPYiYT1N0fgteSUV6ZvKxmnI0JAKLAw97f3ZiABnHWF/k4b9mHwGqsZ0Jk6CHoIQAAXmFPFL5ztkZz2PsDjeHuHCRC4LwqPMaFij6aGNPwhIvMjMZHzmtc9jOz4xc0XPlJjGUAoPEm9GX1Im0kMzF2XtUPBwYyM1c1MnxVcpBxNiYAiAIPe393YwIaxFlf5OO8ZR8Cq7GeCZGhhwiXAQAgYtgThe+crdEc9v5AY7g7B4kQOK8Kj3GhYiK0qLMnpY5maSmX0dzdh/Yybd1Kd7UGDx4oO72g+6VejpHMBnWln1Jb8Oh+dlrZkk+yjkxrswAgylo6e5RaKcDKzN3VQ1uZlk71pDrUrCXlMnMqfTgwk2nrTmul1N/R9MI9lWIkY3hMHDIARJuPvb/hMVHIEUHO+qK4zlv2IVAr1jMhMvQQ9BAAAK+wJwrvGV6jVciY7f1buUADkWP2HORGtTQJFnBeFb7gOJgIW/XKW0f0fErKXDuj06Pf2csMHtDR/YUfnr+pL06W+U12I5lBDR3br+XE5yf0WeknWVcGAKJsy55DOrxcgL/R2U9HdctWZssevXnkBaWU0bUzn+hi6ScxkhkcOq7XV4q0Tp27rFKMZIyPCQCizMfe3/yYgKhx1hfFeN6yD4GasJ4JkaGHoIcAAHiFPVF4z/warVzGeO8PRIzxc5CwgvOq8AXXMgMAAAAAAAAAAAAAAAAAAGue2N739M/VQtsPfMCVzyGU/zbuit3vfvzo2xNrs5X+DQbtPqwP9/MVlrpVuCK/YFUNWZOt9G8VnwdwqcK3g5YV15C12Ur/hlgqPjYDvir/DeOCl/TOR7/cCWrtt+Uq/Vul5/FIlX6G3j8CPO39K8/bZzT0/uM7Qa3OVvq3tZI5b02tZ4BVElmLTPUQQIOwf4iGWc/aKkR93X5A73HHE8AQR/PWIfZEsZabfQgfebq3ghAq3EW+IHbnIFfPcW9U+fuyf1ienz1ElXm7am21Jlvp3xKCOyoCAAAAAAAAAAAAAAAAAABrfiP4Z+c+HRroCR7M6frwmCasZXq16+Be9bVL+duXNDI+U+JJzGQ273pDe1cCujRyVbMlnsVUBgAab6deO/Sclivw9fP6csJeZue+tzWwKXgw/62GxyZKvxoTmd4XdfDVPrUrr9tfXVDpw4GZjLMxAUAUeNj7uxsT0CDO+iIf5y37EFiN9UyIDD0EPQQAwCvsicJ3ztZoDnt/oDHcnYNECJxXhce4UNFHXWnt6C/cO7VZU1YzHUpt69eOlJS5+3WZJzGT6di0LXgthcCiColZixkAaLxu9fb3L9/6v2nKbqarN6i/y6W+7JOYybSntDV4LSlltFjucGAo42xMABAFHvb+7sYENIizvsjHecs+BFZjPRMiQw9BDwEA8Ap7ovCdszWaw94faAx35yARAudV4TEuVPRRdlo3JpdU+NZv1momp8zUpG7MS/n5XJknMZPJzU8Fr6UQyKjssxjKAEDjLWhmclI/BY/msnYz2Zmg/hZK/fxCuScxkwnq7g/Ba8kor0xeVjPOxgQAUeBh7+9uTECDOOuLfJy37ENgNdYzITL0EPQQAACvsCcK3zlbozns/YHGcHcOEiFwXhUe40JFH02MaXjCRWZG4yPnNS77mdnxCxqu/CTGMgDQeBP6snqRNpKZGDuv6ocDA5mZqxoZvio5yDgbEwBEgYe9v7sxAQ3irC/ycd6yD4HVWM+EyNBDhMsAABAx7InCd87WaA57f6Ax3J2DRAicV4XHuFAxEVrU2ZNSR7O0lMto7u5De5m2bqW7WoMHD5SdXtD9Ui/HSGaDutJPqS14dD87rWzJJ1lHprVZABBlLZ09Sq0UYGXm7uqhrUxLp3pSHWrWknKZOZU+HJjJtHWntVLq72h64Z5KMZIxPCYOGQCizcfe3/CYKOSIIGd9UVznLfsQqBXrmRAZegh6CACAV9gThfcMr9EqZMz2/q1coIHIMXsOcqNamgQLOK8KX3AcTISteuWtI3o+JWWundHp0e/sZQYP6Oj+wg/P39QXJ8/qSqmXYyQzqKFj+7Wc+PyEPiv9JOvKAECUbdlzSIeXC/A3OvvpqG7ZymzZozePvKCUMrp25hNdLP0kRjKDQ8f1+kqR1qlzl1WKkYzxMQFAlPnY+5sfExA1zvqiGM9b9iFQE9YzITL0EPQQAACvsCcK75lfo5XLGO/9gYgxfg4SVnBeFb7gWmYAAAAAAAAAAAAAAAAAAGDNE9v7nv65Wmj7gQ+48jmE8t/GBQAAAAAAAAAAAAAAAADAbzVdqLh51xva29cuRN2crg+PaUKu9GrXwb0qfDTyty9pZHzGcObxf0fEzX+r4bEKn7yd+3RooKdkdlV9qfI8ftYi1/PWI8WfK4/MXT+vLx1+IHbue1sDm1Rx/hnJ9L6og6/2qV153f7qgkofDsxkbI/p0X/3CrUI67FTrx16TisVeO1crPRvlZ7HI+voZ9b2x8X1pXzvvMaj42GFeWwkY7v3N/16K2QS2kMUf75WZ1evuyo/TzLnran1zCPO+iKP5q3p11tD5tF7m7+tSyNXNVviWUJlElmLiutNmB7iMdYzITIezVsv12gV6grwa6bWaNUZX894w9NzGdQii9hbqSR5NcQUalEYfp6DDH/sT6xHaze/uDkHmdBaFLv9Q3oIq1bVkDX7JZX+LSF+U0uoY9M27ejnjorR16wpudSh1LZ+7Qg+Gpm7X1vIPP7viLjmKp+8rnRQQ54tmV1VX6o8j5+1yPW89Ujx58ojTY4/EF29QZ0t/BkrzD8jmfaUtvb3K6WMFssdDgxlbI/p0X/3CrUI69Gt3mAerkyDtXOx0r9Veh6PrKOfWdsfF9eX8r3zGo+OhxXmsZGM7d5/Pa8lZCahPUTx52t1dvW6q/LzJHPemlrPPOKsL/Jo3q7ntRjKPHpvM4sqJGZNZxJZi4rrTZge4jHWMyEyHs1bL9doFeoK8Gum1mjVGV/PeMPTcxnUIovYW6kkeTXEFGpRGH6egwx/7E+sR2s3v7g5B5nQWhS7/UN6CKtW1ZA1+yWV/i0harpQESgtp8zUpG7MS/n5nOUMAMCG7ExQf5eCB/MLdjP5jH6YnAza4LwyeVnNOBsTAERBdlo3JgvFak5ZqxmHvb+zMQEN4qwv8nHeuhtTbn4qeC3zy3/nss9iKIP6sZ4JkfGxhwAAAAAAwAcO9yEA17hQESHMaHzkvMadZAAANkyMna96O2kjmZmrGhm+KjnIOBsTAETBxJiGJ1xkHPb+zsYENIizvsjHeetuTLPjFzRcZaPCVAb1Yz0TIuNjDwEAAAAAgA8c7kMArnGhIsxq61a6qzV48EDZ6QXdD5XZqJYmAQBcaulUT6pDzVpSLjOnuw/tZdq601o5HNzR9MK9ki/HSMbwmFqbBQAR1qLOnpQ6glq1lMtornRBM5Mx2vtXyhgeE4UcEeSsL4rrvI1ELdqgrvRTagse3c9OK1vySdaRoRbZwXomRCa+85bpBAAAAADwndl9iFYuFkPD8NmDWYMHdHR/4Zfsb+qLk2d1JXQGAODUlj1688gLSimja2c+0cVb9jKDQ8f1+vLh4HOdOne55MsxkjE+JgCIsq165a0jej4oVplrZ3R69Dt7GeO9f7mM+TEBUeOsL4rxvG18LRrU0LH9WvnzntBnpZ9kXRlYwHomRCbO8xYAAAAAAL8Z34cAGoT71QEAAAAAAAAAAAAAAAAAAGu4oyLMunJWp66Yyjyjofe54wkAOHVrVKdPjjrJXDl3QlUPByYyhse0+92P+aYRgAj7Thc/PaGLLjJGe3+Fey3ryew+rA+5+xIixllfFNd5qzCvxVTmsj47eVmVrSNDLbKD9UyITHznLWs0AAAAAIDvzO5DvKR3PuIXP9AY3FERAAAAAAAAAAAAAAAAAABYwx0VEUKvdh3cq752KX/7kkbGZyxmAAA27Nz3tgY2BQ/mv9Xw2IS9TO+LOvhqn9qV1+2vLqj04cBMxtmYACAKdu7ToYGe4MGcrg+PacJaxmHv72xMQIM464t8nLfuxrR51xvauxLQpZGrmi3xLKYyqB/rmRAZH3sIAAAAAAB84HAfAnCNCxURQodS2/q1IyVl7n5tOQMAsKGrN6i/hft6N0/ZzbSntLW/XylltFiu1BvKOBsTAERBV1o7+peLlaasZhz2/s7GBDSIs77Ix3nrbkwdm7YFr6UQWFQhMWsxg/qxngmR8bGHAAAAAADABw73IQDXuFARIeSUmZrUjXkpP5+znAEA2JCdCervUvBgfsFuJp/RD5OTQRucVyYvqxlnYwKAKMhO68ZkoVjNKWs147D3dzYmoEGc9UU+zlt3Y8rNTwWvZX7571z2WQxlUD/WMyEyPvYQAAAAAAD4wOE+BOAaFyoihBmNj5zXuJMMAMCGibHzVX8K00hm5qpGhq9KDjLOxgQAUTAxpuEJFxmHvb+zMQEN4qwv8nHeuhvT7PgFDVfZqDCVQf1Yz4TI+NhDAAAAAADgA4f7EIBrXKgIs9q6le5qDR48UHZ6QfdDZTaqpUkAAJdaOtWT6lCzlpTLzOnuQ3uZtu60Vg4HdzS9cK/kyzGSMTym1mYBQIS1qLMnpY6gVi3lMporXdDMZIz2/pUyhsdEIUcEOeuL4jpvI1GLNqgr/ZTagkf3s9PKlnySdWSoRXawngmRie+8ZToBAAAAAHxndh+ilYvF0DB89mDW4AEd3f9s8OCmvjh5VldCZwAATm3ZozePvKCUMrp25hNdvGUvMzh0XK8vHw4+16lzl0u+HCMZ42MCgCjbqlfeOqLng2KVuXZGp0e/s5cx3vuXy5gfExA1zvqiGM/bxteiQQ0d26+VP+8JfVb6SdaVgQWsZ0Jk4jxvAQAAAADwm/F9CKBBuF8dAAAAAAAAAAAAAAAAAACwhjsqwqwrZ3XqiqnMMxp6nzueAIBTt0Z1+uSok8yVcydU9XBgImN4TLvf/ZhvGgGIsO908dMTuugiY7T3V7jXsp7M7sP6kLsvIWKc9UVxnbcK81pMZS7rs5OXVdk6MtQiO1jPhMjEd96yRgMAAAAA+M7sPsRLeucjfvEDjcGFil5pVWc6rbTCeqDs9ILuC0DjbVBX+im1Cb/S2iwf/aY1qOPhC7nuZ6eVpZDDGGoRirWyiAAAAAAaqaVTPakO+bkzgvWL3hqtqWVjsL9lYIMrNjaqJYm/X0YtCoG9lTBaOnuU6uCT92ue1qKmFm00cf57KafM3F09FB5rUWdPSkynEja2ePnTpJyDRNI56yE8rSGm0Ad7ZYtePHZcLyqsm/ri5NmqV1pLvdp1cK/62qX87UsaGZ+xmAGSalBDx/g2Q5I8vee4ju5RaDc/P6HPqhdy7dz3tgY2BQ/mv9Xw2IS9TO+LOvhqn9qV1+2vLqj04cBMxtmYEoVaBETWzn06NNATPJjT9eExTVjLOOz9nY0JaBBnfZGP89bdmDbvekN7VwK6NHJVsyWexVQG9WM9EyLjYw+RJFv26M0jL4gfokFUdQ/8nY4OCL6jFqFBtuw5pMP8HFtydD+nN449p9Ay3+jsp6O6JTy2Va+8xa8bJonrc5AIweE+RJLQQ0QDFyoihA6ltvVrRzCPM3e/tpwBANjQ1RvU38LVZ81TdjPtKW3t7w82LjNaLFfqDWWcjQkAoqArrR39y8VKU1YzDnt/Z2MCGsRZX+TjvHU3po5N24LXUggsqpCYtZhB/VjPhMj42EMAAAAAAOADh/sQgGtcqIgQcspMTerGvJSfz1nOAABsyM4E9XcpeDC/YDeTz+iHycmgDc4rk5fVjLMxAUAUZKd1Y7JQrOaUtZpx2Ps7GxPQIM76Ih/nrbsx5eangtcyv/x3LvsshjKoH+uZEBkfewgAAAAAAHzgcB8CcI0LFb1S6082l7D9gN5b9y36ZzQ+cl7jTjIAQs1xH+0+rA/3+/dDtPXfLv0ZDb2//lv0T4ydr/pTmEYyM1c1MnxVcpBxNqbEohYBkTIxpuEJFxmHvb+zMQEN4qwv8nHeuhvT7PgFDVfZqDCVQf1Yz4TI+NhDJBU/Y4iIuHLuRIL3Curbl/MKtQgNkrl2RqdHvxMKPK1FYeqLp+eR7Mjo2plPdPGWUFDXtRPR5/ocJEJwuA+RVPQQjcOFijCrrVvprtbgwQNlpxd0P1Rmo1qaBABwqaVTPakONWtJucyc7j60l2nrTmvlcHBH0wv3Sr4cIxnDY2ptFgBEWIs6e1LqCGrVUi6judIFzUzGaO9fKWN4TBRyRJCzviiu8zYStWiDutJPqS14dD87rWzJJ1lHhlpkB+uZEJn4zlumEwAAAADAd2b3IVq5WAwNw2cPZg0e0NHlb6ZUuNvSujIAAKe27NGby98Sq/DtOUOZwaHjen35cPC5Tp27XPLlGMkYHxMARNlWvfLWyrdby38j0FDGeO9fLmN+TEDUOOuLYjxvG1+LBjV0bL9W/rzl7kCwvgwsYD0TIhPneQsAAAAAgN+M70MADcKFil7pVt/LL6u2mxDe0e0//Vn/LgCxtfH3emGgV08qoXo65KPO9Mv648u1Ze/c+pP+lUKORkt6LcIam9UpAAAAAA3zuz/oj9ufErDC3hrtye7fB3tYfyMUdKibjZHVqEUhsLcSxu/+8LL6EvvR87QWPflb/T44/13TEefBjP78zb9pUQjvd/oPL29XYqdT+2+9POfBOUigPGc9hKf1ZT24UNErKT372r4av5V/U1/YuFDxylmdumIq84yG3ueOJ0BZm3boP77G3d180/uHfeqtMXtzycIi4daoTp8cdZK5cu6Eqh4OTGQMj2n3ux/zTaNi1CIgYr7TxU9P6KKLjNHeX+Fey3oyuw/rQ+6+hIhx1hfFdd4qzGsxlbmsz05eVmXryFCL7GA9EyIT33nLGm2NbQN67TX+ILCv85kX9dozAkqjFqFBtgX763z0PNP5jHbVesDJfKP/wYWKhjytP9R83QHiouHnIBGK2X2Il/TOR/ziRzF6CHdqu/keAAAAAAAAAAAAAAAAAABAHbijolf+ogeL9/RjuX9ualV7x5Nqlim92nVwr/rapfztSxoZn7GYAVDZX3Q/mP8PlSAtG7Sxzb/D2F/uL+pe2TeySa3tHXrSXCHXzn1va2BT8GD+Ww2PTdjL9L6og6/2qV153f7qgkofDsxknI0JJSSwFqGCoC/9SbBt5z4dGugJHszp+vCYJqxlHPb+zsYENIizvsjHeetuTJt3vaG9KwFdGrmq2RLPYiqD+rGeCZHxsYfAry39qFz+gWjLsSL8Gm3px3taXOQ+Vb9mfs/OK9SiENhbCWPpx5zyD5L0B/S0FlWrIZ6eK4qWJf2YyytZ08n0dRXR4PocJEJwuA+BX3PXQzxI5DlVjtpe+V7/8g9ny9/KdfsBvXfE5E8zdii1rV87gifM3P3acgZAZd/rT5Xmv488/am07//l7/VZ2TfyGQ29f0TPG/yN3a7eoP4W/ozNU3Yz7Slt7e8PjkEZLZYr9YYyzsaEEhJYi4BG60prR/9ysdKU1YzD3t/ZmIAGcdYX+Thv3Y2pY9O24LUUAosqJGYtZlA/1jMhMj72EPi17HX986ejuiXAjKkv/ov+8QvhV8zv2XmFWoQGyf75n3R69Dslh6e1qFoN8fRcUbRk9ed/+kQXbyk5jF9XEQ2uz0EiBIf7EPi15PUQbnGhIkLIKTM1qRvzUn4+ZzkDALAhOxPU36XgwfyC3Uw+ox8mJ4M2OK9MXlYzzsYEAFGQndaNyUKxmgu2DG1mHPb+zsYENIizvsjHeetuTLn5qeC1zC//ncs+i6EM6sd6JkTGxx4CAAAAAAAfONyHAFzjQkWEMKPxkfMad5IBANgwMXa+6k9hGsnMXNXI8FXJQcbZmAAgCibGNDzhIuOw93c2JqBBnPVFPs5bd2OaHb+g4SobFaYyqB/rmRAZH3sIAAAAAAB84HAfAnCNCxVhVlu30l2tKvyWenZ6QfdDZTaqpUkAAJdaOtWT6lCzlpTLzOnuQ3uZtu60Vg4HdzS9cK/kyzGSMTym1mYBQIS1qLMnpY6gVi3lMporXdDMZIz2/pUyhsdEIUcEOeuL4jpvI1GLNqgr/ZTagkf3s9PKlnySdWSoRXawngmRie+8ZToBAAAAAHxndh+ilYvF0DB89mDW4AEd3f9s8OCmvjh5VldCZwAATm3ZozePvKCUMrp25hNdvGUvMzh0XK8vHw4+16lzl0u+HCMZ42MCgCjbqlfeOqLng2KVuXZGp0e/s5cx3vuXy5gfExA1zvqiGM/bxteiQQ0d26+VP+8JfVb6SdaVgQWsZ0Jk4jxvAQAAAADwm/F9CKBBuF8dAAAAAAAAAAAAAAAAAACwhjsqwqwrZ3XqiqnMMxp6nzueAIBTt0Z1+uSok8yVcydU9XBgImN4TLvf/ZhvGgGIsO908dMTuugiY7T3V7jXsp7M7sP6kLsvIWKc9UVxnbcK81pMZS7rs5OXVdk6MtQiO1jPhMjEd96yRgMAAAAA+M7sPsRLeucjfvEDjcEdFQEAAAAAAAAAAAAAAAAAgDXcUREh9GrXwb3qa5fyty9pZHzGYgYAYMPOfW9rYFPwYP5bDY9N2Mv0vqiDr/apXXnd/uqCSh8OzGScjQkAomDnPh0a6AkezOn68JgmrGUc9v7OxgQ0iLO+yMd5625Mm3e9ob0rAV0auarZEs9iKoP6sZ4JkfGxhwAAAAAAwAcO9yEA17hQESF0KLWtXztSUubu15YzAAAbunqD+lu4r3fzlN1Me0pb+/uVUkaL5Uq9oYyzMQFAFHSltaN/uVhpymrGYe/vbExAgzjri3yct+7G1LFpW/BaCoFFFRKzFjOoH+uZEBkfewgAAAAAAHzgcB8CcI0LFRFCTpmpSd2Yl/LzOcsZAIAN2Zmg/i4FD+YX7GbyGf0wORm0wXll8rKacTYmAIiC7LRuTBaK1ZyyVjMOe39nYwIaxFlf5OO8dTem3PxU8Frml//OZZ/FUAb1Yz0TIuNjDwEAAAAAgA8c7kMArnGhIkKY0fjIeY07yQAAbJgYO1/1pzCNZGauamT4quQg42xMABAFE2MannCRcdj7OxsT0CDO+iIf5627Mc2OX9BwlY0KUxnUj/VMiIyPPQQAAAAAAD5wuA8BuMaFijCrrVvprtbgwQNlpxd0P1Rmo1qaBABwqaVTPakONWtJucyc7j60l2nrTmvlcHBH0wv3Sr4cIxnDY2ptFgBEWIs6e1LqCGrVUi6judIFzUzGaO9fKWN4TBRyRJCzviiu8zYStWiDutJPqS14dD87rWzJJ1lHhlpkB+uZEJn4zlumEwAAAADAd2b3IVq5WAwNw2cPZg0e0NH9zwYPbuqLk2d1JXQGAODUlj1688gLSimja2c+0cVb9jKDQ8f1+vLh4HOdOne55MsxkjE+JgCIsq165a0jej4oVplrZ3R69Dt7GeO9f7mM+TEBUeOsL4rxvG18LRrU0LH9WvnzntBnpZ9kXRlYwHomRCbO8xYAAAAAAL8Z34cAGoT71QEAAAAAAAAAAAAAAAAAAGue2N739M/VQn/7n/4XHdjaKkRdXnOT/4cWhHrMXT+vLydkWa92Hdyrvnb5Zf5bDY9V+OPt3KdDAz0ls5t3vaG9v/xBqjzPqizgUv62Lo1c1awabXUNWV23Kv1beTv3va2BTao4/4xkel/UwVf71B4cq25/dUHjM7KWsT2mR/8d+Cs3PcRjj46HFWqTkYz1ebtTrx16Tj3yzDr6mfztSxop+qMV15e1/1bWoz5rTteHxzRhLfP4OFP+tRnK2B5TcW/qkWq1qPjzVX8Pkcx5a2o984izvsijeWv69daQsX68TWQtKq43lfqCCp/7NVjPhMj42EOUVfz5WvM6H70nJf6t7FiBv6r12G8KPUSEa5Gn+/7V9kSLa2ilXqfWvVUfj7fsrQDhOapFfp6DrLa2Mr1G87GHKM/4Pm/DmToH6WlfhBBq3+exrdLcjPb5Gb/U9NPPC7M5ybsLFSv8FIpJ2w/oPWc/E9munv5+FiR1apqSAx1KbevXDt9+bq65yh+vK60d/c+WzHZs2hb8W6qm51mVBVzKLOrr4P/X+AsVV9eQ1XWr0r+V19Ub/G8K07PC/DOSaU9pa3CMKvzM2OLXspqxPaZH/x34Kzc9xGOPjocVapORjPV5263e4L97N53W0c9k7q7+oxXXl7X/VtajPqtZU1Yzj48z5V+boYztMRX3ph6pVouKP1/19xDJnLem1jOPOOuLPJq363kthjLWj7eJrEXF9aZSX1Dhc78G65kQGR97iLKKP19rXuej96TEv63l6bxFCLUe+02hh4hwLfJ037/anmhxDa3U69S6t+rj8Za9FSA8R7XIz3OQ1dZWptdoPvYQ5Rnf5204U+cgPe2LEELt+zy2VZqb0T4/45eaLlQEAAB+ys5M6sZS8GB+wW4mn9EPk5NBK5pXJi+rGWdjAhokNz+lG5Pzy/MhZzPjcN4ihOx08D4WitWcslYzOWWmgrpY+MjMl/1Umck4GxPQIM7qq4/z1t2YnB1vEQrrmRAZH3sIwHf0ENQi3/l4vGVvBUCisH8IIGGoRXXhQkUAABJsYux81dtHG8nMXNXI8FXJQcbZmIAGmR2/oOFxBxmH8xYhTIxpeMJFZkbjI+dV+WNlKONsTECDOKuvPs5bd2NydrxFKKxnQmR87CEA39FDhMhQi2LBx+MteysAEoX9QwAJQy2qCxcqAgCAx1o61ZPqULOWlMvM6e5De5m27rS6WoMHD+5oeuFeyZdjJGN4TK3NAiJmg7rST6kteHQ/O63sfXsZs/O2lcWIFS3q7EmpI6hVS7mM5koXNDOZtm6lV95sZacXVPJjZSRjeEwUckSQs74orvM2ErXI8PGWWmQH65kQGR/nLeA/eoio1KKNamkSLPDveMveCoCE8bGHAICyqEW1oH8FAACPbdmjN4+8oJQyunbmE128ZS8zOHRcrz8bPLj5uU6du1zy5RjJGB8TEDWDGjq2XyvT4IQ+u2IvY3zewoKteuWtI3o+KFaZa2d0evQ7e5nBAzq6f/nN1hcnz6r0x8pExvyYgKhx1hfFeN42vhaZP97CAtYzITI+zlvAf/QQUapFsMG/4y17KwASxsceAgDKohbVokkAAAAAAAAAAAAAAAAAAACWPLG97+mfq4W2H/hAh7277USFbzyZtP2A3uPuS7FQ/m4HJj2jofc9vItLhW/1Ldt9WB/+8q3SNdlV9aXK8/hZixALmW909tNR3VKjra4hq+tWpX+DSbvf/ZhvK2MV5lu9XtI7H3l4R6l19DNrvwlXXF/4xq5Fxb2pR6rVouLPV/09RDLnran1DLBKImtRcb1Zuy9XXF8c7dkhQYo/X2vuwLJq77bKnRk9nbcIgWM/HvF037/anmhxDV2bLa6Zkdlb9ZGnazSgmKNalMzrIVijheHfPq+pc5Ce9kUIITo1pNLc5PyMO9xREQAAAAAAAAAAAAAAAAAAWPMbAQCAxNq5720NbAoezH+r4bEJe5neF3Xw1T61K6/bX13Q+IysZZyNCWiQzbve0N6+dil/W5dGrmrWVsbhvEUIO/fp0EBP8GBO14fHNGEt06tdB/dq5SNzSSOl32wzGWdjAhrEWX31cd66G5Oz4y1CYT0TIuNjDwH4jh6CWuQ7H4+37K0ASBT2DwEkDLWoLlyoCABAgnX19mtH4TbWzVN2M+0pbe3vV0oZLX4tqxlnYwIapGPTNu3oT0mZRRWmwaytjMN5ixC60sH7uFysNGU106HUtqAuFj4yd8u9kYYyzsYENIiz+urjvHU3JmfHW4TCeiZExsceAvAdPQS1yHc+Hm/ZWwGQKOwfAkgYalFduFARAIAEy85M6sZS8GB+wW4mn9EPk5PBVlpembysZpyNCWiQ3PyUbkzOL8+HnM2Mw3mLELLTwftYKFZzylrN5JSZCupi4SMzX/ZTZSbjbExAgzirrz7OW3djcna8RSisZ0JkfOwhAN/RQ1CLfOfj8Za9FQCJwv4hgIShFtWFCxUBAEiwibHzVW8fbSQzc1Ujw1clBxlnYwIaZHb8gobHHWQczluEMDGm4QkXmRmNj5xX5Y+VoYyzMQEN4qy++jhv3Y3J2fEWobCeCZHxsYcAfEcPESJDLYoFH4+37K0ASBT2DwEkDLWoLlyoCAAAHmvpVE+qQ81aUi4zp7sP7WXautPqag0ePLij6YV7JV+OkYzhMbU2C4iYDepKP6W24NH97LSy9+1lzM7bVhYjVrSosyeljqBWLeUymitd0Mxk2rqVXnmzlZ1eUMmPlZGM4TFRyBFBzvqiuM7bSNQiw8dbapEdrGdCZHyct4D/6CGiUos2qqVJsMC/4y17KwASxsceAgDKohbVgv4VAAA8tmWP3jzyglLK6NqZT3Txlr3M4NBxvf5s8ODm5zp17nLJl2MkY3xMQNQMaujYfq1MgxP67Iq9jPF5Cwu26pW3juj5oFhlrp3R6dHv7GUGD+jo/uU3W1+cPKvSHysTGfNjAqLGWV8U43nb+Fpk/ngLC1jPhMj4OG8B/9FDRKkWwQb/jrfsrQBIGB97CAAoi1pUiyYBAAAAAAAAAAAAAAAAAABY8sT2vqd/rhbafuADHfbuthMVvvFk0vYDeo+7L8VC+bsdmPSMht738C4uFb7Vt2z3YX34y7dK12RX1Zcqz+NnLUIsZL7R2U9HdUuNtrqGrK5blf4NJu1+92O+rYxVmG/1eknvfOThHaXW0c+s/SZccX3hG7sWFfemHqlWi4o/X/X3EMmct6bWM8AqiaxFxfVm7b5ccX1xtGeHBCn+fK25A8uqvdsqd2b0dN4iBI79eMTTff9qe6LFNXRttrhmRmZv1UeertGAYo5qUTKvh2CNFoZ/+7ymzkF62hchhOjUkEpzk/Mz7vDTz2VtUFf6KbUppI0t3LbSE23daXW1KqSNauEDAfinpVM9qQ41yzZqCBBFv2lNK51WaPez08reFwAAAICGaFZr0NiXbe1b7a/6ETPNrcFa0MBi8MEdTS/cEwAAAPzT1LLRTM9oHecgYUuTWjaaOY8WFsv6aOBCxbIGNXSMbyHhscGh49xBC0BpW/bozZjePXfnvrc1sCl4MP+thscm7GV6X9TBV/vUrrxuf3VB4zOylnE2JuCvnt5zXEf3KLRa78y4edcb2tvXLuVv69LIVc3ayjictwhh5z4dGugJHszp+vCYJqxlerXr4F6tfGQuaaT0m20m42xMQIM4q68+zlt3Y3J2vEUorGdCZHzsIULr0yvHjusVATXq26Ojx4wsBmu7MyM9REJqUYL5eLxlbwVAorB/WEr3wN/p6ICABOvWwN8dl5fTgHMZdeFCRQAAEqyrt187ChdhN0/ZzbSntLW/XylltPi1rGacjQlokI5N27SjPyVlFlWYBrO2Mg7nLULoSgfv43Kx0pTVTIdS24K6WPjI3C33RhrKOBsT0CDO6quP89bdmJwdbxEK65kQGR97CMB39BDUIt/5eLxlbwVAorB/CCBhqEV14UJFAAASLDszqRtLwYP5BbuZfEY/TE4GW2l5ZfKymnE2JqBBcvNTujE5vzwfcjYzDuctQshOB+9joVjNKWs1k1NmKqiLhY/MfNlPlZmMszEBDeKsvvo4b92NydnxFqGwngmR8bGHAHxHD0Et8p2Px1v2VgAkCvuHABKGWlQXLlSsyU19cfKsrqgO2w/ovZj+HCjKq/WnGX/tGQ29f0TP84EA/JX5Rmc/HdUtxcPE2Pmqt482kpm5qpHhq5KDjLMxAX/lui+YHb+g4XEHGYfzFiFMjGl4wkVmRuMj51X5Y2Uo42xMQIM4q68+zlt3Y3J2vEUorGdCZHzsIepxa1SnT47Wlt19WB/uf1bAI7X+ZHMJ2w98oMPrXQzSQ4TIRLwWYYWPx1v2VgAkCvuHv7hy7kR915YAXsro2plPdPGW/MO5jLpwoSIAAHispVM9qQ41a0m5zJzuPrSXaetOq6s1ePDgjqYX7pV8OUYyhsfU2iwgYjaoK/2U2oJH97PTyt63lzE7b1tZjFjRos6elDqCWrWUy2iudEEzk2nrVnrlzVZ2ekElP1ZGMobHRCFHBDnri+I6byNRiwwfb6lFdrCeCZHxcd4C/qOHiEot2qiWJsEC/4637K0ASBgfewgAKItaVAv6VwAA8NiWPXpz+U7AFb7dYigzOHRcrxduRlHhDgRGMsbHBETNoIaO7dfKNCh3d0czGePzFhZs1StvrdypM3PtjE6PfmcvM3hAR5fvKlThDvRGMubHBESNs74oxvO28bXI/PEWFrCeCZHxcd4C/qOHiFItgg3+HW/ZWwGQMD72EABQFrWoFlyoWI+Nv9cLA716spZs+29ryyHGNurZFwbU21pLtkPdfCCAZPndH/TH7U/JPuoL0Cid6Zf1x5dry9659Sf9678LAAAAQEN0KP1y0L+rDj0dAlbpSAdrwZoXg/rvf2YxCAAA4KMnu38f9IV/I39xDhJhPKnu3wfr8N8p0jaz5Hfmie19T/9cLbT9wAc67N1tJ6r9DvpLeuejX77hvubK/O0H9B53VPJO+bsdrNj97sePvp22OvuMht5P+J1ZKnyrb9nuw/pw/7Mls6vqS5Xn8bMWIRYy3+jsp6O6Ve7fi48La7PFn3+HqtU01K/4eACsV6UeInnztrjf9sg6+pm134Qrri98Y9eiBh2bbTO1nqn8PMmct6bWM8AqiaxFxfVm7b5ccX2ptmcHrJenxy/ECz2E5zw9R2BqT7Ta8yAEjnFIAEe1KJnXQ7BGCyPJ561rX/sD8cT5GbuaBAAAAAAAAAAAAAAAAAAAYAk//RzaX3R/8Z4elvvnpla1dzypZiEp/nJ/UffKfyDU2t6hJ/lAAMm09KNy+Qf6SfY9eFhbbue+tzWwKXgw/62GxybsZXpf1MFX+9SuvG5/dUHjM7KWcTYm4K9cH/s373pDe/vapfxtXRq5qllbGYfzFiHs3KdDAz3BgzldHx7ThLVMr3Yd3KuVj8wljZR+s81knI0JaBBn9dXHeetuTM6OtwiF9UyIjI89RFkP9WBxUYsKqWWDNraxnY4if7mnxXt/KfvPTa3t6jC5GKSHiHktQlU+Hm/ZWwGQKMnaP1z6MegFF0OvMmKp1nOQwIol/ZjL64GLE+SG3PtxqbYg5zLqws5KaN/rT/9Q9LPQa/Ez0Ynz/b/8Pbc6BlBa9rr+OWI/c9LV268dhXv3N0/ZzbSntLW/PzgeZrT4taxmnI0J+CvXx/6OTdu0oz94wsyiCtNg1lbG4bxFCF3p4H1cLlaasprpUGpbUBcLH5m75d5IQxlnYwIaxFl99XHeuhuTs+MtQmE9EyLjYw9R1jf6b//wjULz9CfbEcL3f9I/VvjJZuM/B0gPEfNahKp8PN6ytwIgUZK1fzj1xX/RP34hAFVl9ed/8vTn4zmXURcuVAQAIMGyM5O6UfhSyPyC3Uw+ox8mJ4OttLwyeVnNOBsT0CC5+SndmJxfng85mxmH8xYhZKeD97FQrOaC5b7NTE6ZqaAuFj4y82U/VWYyzsYENIiz+urjvHU3JmfHW4TCeiZExsceAvAdPQS1yHc+Hm/ZWwGQKOwfAkgYalFduFARAIAEmxg7X/X20UYyM1c1MnxVcpBxNiagQWbHL2h43EHG4bxFCBNjGp5wkZnR+Mh5Vf5YGco4GxPQIM7qq4/z1t2YnB1vEQrrmRAZH3sIwHf0ECEy1KJY8PF4y94KgERh/xBAwlCL6sKFigAA4LGWTvWkOtSsJeUyc7r70F6mrTutrtbgwYM7ml64V/LlGMkYHlNrs4CI2aCu9FNqCx7dz04re99exuy8bWUxYkWLOntS6ghq1VIuo7nSBc1Mpq1b6ZU3W9npBZX8WBnJGB4ThRwR5Kwviuu8jUQtMny8pRbZwXomRMbHeQv4jx4iKrVoo1qaBAv8O96ytwIgYXzsIQCgLGpRLehfAQDAY1v26M0jLyiljK6d+UQXb9nLDA4d1+vPBg9ufq5T5y6XfDlGMsbHBETNoIaO7dfKNDihz67Yyxift7Bgq15564ieD4pV5toZnR79zl5m8ICO7l9+s/XFybMq/bEykTE/JiBqnPVFMZ63ja9F5o+3sID1TIiMj/MW8B89RJRqEWzw73jL3gqAhPGxhwCAsqhFtWgSAAAAAAAAAAAAAAAAAACAJU9s73v652qh7Qc+0GHvbjtR4RtPy17SOx/98g33NVfmbz+g9x7dUanKN3ZXZRFl5e92sGL3ux8/+nba6uwzGnr/8Z1ZKj/P6qw3Knyrb9nuw/pw/7Mls6vqS5Xn8bMWIRYy3+jsp6O6Ve7fi2v92mzx57/a8yAWio8HQMF6jv319xA+Ku63PbKOfmbtN+GK6wvf2LWo+NjsETfrmWTOW1PrGWCVRNai4nqzdl+uuL5U27MDGsTTeYsQ1rOXSQ/hOU/3/dkTjQFP12hAMUe1KJnXQ7BGgw2e9kUIgRqC1bijIgAAAAAAAAAAAAAAAAAAsOY3AgAAibVz39sa2BQ8mP9Ww2MT9jK9L+rgq31qV163v7qg8RlZyzgbE9Agm3e9ob197VL+ti6NXNWsrYzDeYsQdu7ToYGe4MGcrg+PacJaple7Du7VykfmkkZKv9lmMs7GBDSIs/rq47x1NyZnx1uEwnomRMbHHgLwHT0Etch3Ph5v2VsBkCjsHwJIGGpRXbhQEQCABOvq7deOwr37m6fsZtpT2trfr5QyWvxaVjPOxgQ0SMembdrRn5IyiypMg1lbGYfzFiF0pYP3cblYacpqpkOpbUFdLHxk7pZ7Iw1lnI0JaBBn9dXHeetuTM6OtwiF9UyIjI89BOA7eghqke98PN6ytwIgUdg/BJAw1KK6cKEiAAAJlp2Z1I2l4MH8gt1MPqMfJieDrbS8MnlZzTgbE9Agufkp3ZicX54POZsZh/MWIWSng/exUKzmlLWaySkzFdTFwkdmvuynykzG2ZiABnFWX32ct+7G5Ox4i1BYz4TI+NhDAL6jh6AW+c7H4y17KwAShf1DAAlDLaoLFyoCAJBgE2Pnq94+2khm5qpGhq9KDjLOxgQ0yOz4BQ2PO8g4nLcIYWJMwxMuMjMaHzmvyh8rQxlnYwIaxFl99XHeuhuTs+MtQmE9EyLjYw8B+I4eIkSGWhQLPh5v2VsBkCjsHwJIGGpRXbhQEQAAPNbSqZ5Uh5q1pFxmTncf2su0dafV1Ro8eHBH0wv3Sr4cIxnDY2ptFhAxG9SVfkptwaP72Wll79vLmJ23rSxGrGhRZ09KHUGtWsplNFe6oJnJtHUrvfJmKzu9oJIfKyMZw2OikCOCnPVFcZ23kahFho+31CI7WM+EyPg4bwH/0UNEpRZtVEuTYIF/x1v2VgAkjI89BACURS2qBf0rAAB4bMsevXnkBaWU0bUzn+jiLXuZwaHjev3Z4MHNz3Xq3OWSL8dIxviYgKgZ1NCx/VqZBif02RV7GePzFhZs1StvHdHzQbHKXDuj06Pf2csMHtDR/ctvtr44eValP1YmMubHBESNs74oxvO28bXI/PEWFrCeCZHxcd4C/qOHiFItgg3+HW/ZWwGQMD72EABQFrWoFk0CAAAAAAAAAAAAAAAAAACw5IntfU//XC30t//pf9GBra3yywP98P/9f+n/8/8v9+879dqh59Sz/HhO14fH9OgnwXtf1MFX+9Re6t/qsHnXG9rbt/Js+duXNDI+8/hV7HtbA5tU8t9+9YqLsv4I//c1o1e7Du7VX98mzV0/ry8navm3ys/jjflvNTxW4V3auU+HBnpKZos//9WeZ1XWG1H5jMdQ8efKI5VriHmPjh0V5p+RzKNjZ163v7qgkoczQxnbY+J4i/Ux1UM89uh4mL+tSyNXNWsrY33eFvfbHllHPxOm9y/6H/31eFhhHhvJPP68ln9thjK2x5TQHqL481V/LUrmvDW1nnnEWV/k0bw1/XpryFg/3iayFhXXm0p9QYXP/RqsZ0Jk6CHCZcowc7xFGH7uH9ZeF82gh1h/xtN9/wo9zrLic2WVep1qz/Or5/PoeMveSl1q3hPBGtSiMLUomT2E6TWaRz3EqutB/OFmHZLQWhQ79BBGRGAfIo5q+unnhdmc5N2FijnNLlT692719vf/9ad4mjVV/E/tKW0N/i1V6t/q0LFpm3b0rzxb5u7Xq/6tq7dfO/566/a1/7ZWcdYf4f++ZnQotS34+/71Z+Kapmr9t8rP443mKu9SVzr4jP/1w7kmW/z5r/Y8q7LeiMpnPIaKP1ceaXL8gXh07Kgw/4xkHh07M1osdzgzlLE9Jo63WB9TPUTR/+qX42FmUYVpMGsrY33eFvfbHllHPxOm93/8P/rleFhhHhvJPP68ln9thjK2x5TQHqL481V/LUrmvDW1nnnEWV/k0bxdz2sxlLF+vE1kLSquN5X6ggqf+zVYz4TI0EOEy5T7nxo53iIMP/cPa6+LZtBDrD/j6b5/hR5nWfG5skq9TrXn+dXzeXS8ZW+lLjXviWANalGYWpTMHsL0Gs2jHmLV9SD+cLMOSWgtih16CCMisA8RRzVdqAgAAPyUnZnUjaXgwfyC3Uw+ox8mJ4PlbF6ZvKxmnI0JaJDc/JRuTM4vz4eczYzDeYsQstPB+1goVnPKWs3klJkK6mLhIzNf9lNlJuNsTECDOKuvPs5bd2NydrxFKKxnQmToIeghgLLoIcJlUDcfj7fsrQBIFHp/AAlDLaoLFyoCAJBgE2Pnq94+2khm5qpGhq9KDjLOxgQ0yOz4BQ2PO8g4nLcIYWJMwxMuMjMaHzmvyh8rQxlnYwIaxFl99XHeuhuTs+MtQmE9EyJDDxEuA3iNHiJcBnXz8XjL3gqARKH3B5Aw1KK6cKEiAAB4rKVTPakONWtJucyc7j60l2nrTqurNXjw4I6mF+6VfDlGMobH1NosIGI2qCv9lNqCR/ez08ret5cxO29bWYxY0aLOnpQ6glq1lMtornRBM5Np61Z65c1WdnpBJT9WRjKGx0QhRwQ564viOm8jUYsMH2+pRXawngmRoYcIlwE8Rw9RJbNRLU2CBf4db9lbAZAwce0hNraIQzuA9WMfohb0rwAA4LEte/TmkReUUkbXznyii7fsZQaHjuv1Z4MHNz/XqXOXS74cIxnjYwKiZlBDx/ZrZRqc0GdX7GWMz1tYsFWvvHVEzwfFKnPtjE6PfmcvM3hAR/cvv9n64uRZlf5YmciYHxMQNc76ohjP28bXIvPHW1jAeiZEhh4iXAbwHD1EDRnY4N/xlr0VAAnD/iGARGEfohZNAgAAAAAAAAAAAAAAAAAAsOSJ7X1P/1wttP3ABzrs3WXjFb7xtOwlvfPRL99wX3Nl/vYDeu/RHZUqXNlfo+K/79qrYXe/+/Gjb0RVu1K2OOuP8H9fM57R0PuPvz2x+s4Ilf6t8vN4o8K3+pbtPqwPf/lW6ZrsqvpS5Xn8rEVR+YzHUPHnyiOVawiigOMt1sdUD+Gj4n7bI+voZ8L0/gghoT1E8eer/lqUzHlraj0DrJLIWlRcb9buyxXXl2p7dkB0mTneIoxknstA43m675/5Rmc/HdWtcv9efK5sbba416n2PAjBzzUaeyL1ohaFqUXJ7CFYo5W16noQf7hZhyS0FsUOPQQahzsqAgAAAAAAAAAAAAAAAAAAa34jAACQWDv3va2BTcGD+W81PDZhL9P7og6+2qd25XX7qwsan5G1jLMxAQ2yedcb2tvXLuVv69LIVc3ayjictwhh5z4dGugJHszp+vCYJqxlerXr4F6tfGQuaaT0m20m42xMQIM4q68+zlt3Y3J2vEUorGdCZOgh6CGAsughwmVQNx+Pt+ytAEgUen8ACUMtqgsXKgIAkGBdvf3aUbivd/OU3Ux7Slv7+5VSRotfy2rG2ZiABunYtE07+lNSZlGFaTBrK+Nw3iKErnTwPi4XK01ZzXQotS2oi4WPzN1yb6ShjLMxAQ3irL76OG/djcnZ8RahsJ4JkaGHoIcAyqKHCJdB3Xw83rK3AiBR6P0BJAy1qC5cqAgAQIJlZyZ1Yyl4ML9gN5PP6IfJyWArLa9MXlYzzsYENEhufko3JueX50POZsbhvEUI2engfSwUqzllrWZyykwFdbHwkZkv+6kyk3E2JqBBnNVXH+etuzE5O94iFNYzITL0EPQQQFn0EOEyqJuPx1v2VgAkCr0/gIShFtWFCxUBAEiwibHzVW8fbSQzc1Ujw1clBxlnYwIaZHb8gobHHWQczluEMDGm4QkXmRmNj5xX5Y+VoYyzMQEN4qy++jhv3Y3J2fEWobCeCZGhhwiXAbxGDxEug7r5eLxlbwVAotD7A0gYalFduFARAAA81tKpnlSHmrWkXGZOdx/ay7R1p9XVGjx4cEfTC/dKvhwjGcNjam0WEDEb1JV+Sm3Bo/vZaWXv28uYnbetLEasaFFnT0odQa1aymU0V7qgmcm0dSu98mYrO72gkh8rIxnDY6KQI4Kc9UVxnbeRqEWGj7fUIjtYz4TI0EOEywCeo4eoktmolibBAv+Ot+ytAEiYuPYQG1vEoR3A+rEPUQv6VwAA8NiWPXrzyAtKKaNrZz7RxVv2MoNDx/X6s8GDm5/r1LnLJV+OkYzxMQFRM6ihY/u1Mg1O6LMr9jLG5y0s2KpX3jqi54Nilbl2RqdHv7OXGTygo/uX32x9cfKsSn+sTGTMjwmIGmd9UYznbeNrkfnjLSxgPRMiQw8RLgN4jh6ihgxs8O94y94KgIRh/xBAorAPUYsmAQAAAAAAAAAAAAAAAAAAWPLE9r6nf64W2n7gAx327rLxCt94WvaS3vnol2+4r7kyf/sBvffojkoVruyvUfHfd+3VsLvf/fjRN6KqXSlbnPVH+L+vGc9o6P3H355YfWeESv9W+Xm8UeFbfct2H9aHv3yrdE12VX2p8jx+1qKofMZjqPhz5ZHKNQRRwPEW62Oqh/BRcb/tkXX0M2F6f4SQ0B6i+PNVfy1K5rw1tZ4BVklkLSquN2v35YrrS7U9OyC6zBxvEUYyz2Wg8Tzd9898o7OfjupWuX8vPle2Nlvc61R7HoTg5xqNPZF6UYvC1KJk9hCs0cpadT2IP9ysQxJai2KHHgKNw08/x0hTy0al0+my/97arORp6VRPqkP2h75RLdx/FA2xQV3pp9Qm/IqnRe83rWlVKPU1u5+dVva+AEOoRfWjhwAAAACwmqm1P35to5cLsCa1bDTxmVlSLjOnuw8FALHW0tmjVEcST4pWwz4kgMo4B2lRW7fSXa2Kj1YvLxardk1VrZZyGc2xcLKGCxVjpHvg73R0QCi2ZY/e9PDbDMBjgxo65uFda1DW03uO6+gehVbrt6J27ntbA5uCB/Pfanhswl6m90UdfLVP7crr9lcXND4jaxlnY0oUalGUbN71hvb2tUv527o0clWztjIO5y1C2LlPhwZ6ggdzuj48pglrmV7tOrhXKx+ZSxop/WabyTgbE9Agzuqrj/PW3ZicHW8RCuuZEBl6iIb2EKbW/kiKbg383XGFPzVQ692Q6CHCZVA3H4+37K1YsWXPIQ/vfAf4gN4/6lyfg0yUwQM66uEvZ8SNqWuqar4zI7WoLlyoCABAgnX19mtHoW9unrKbaU9pa3+/UsGm+OLXsppxNiagQTo2bdOO/mAzNrOowjSYtZVxOG8RQlc6eB+Xi5WmrGY6lNoW1MXCR+ZuuTfSUMbZmIAGcVZffZy37sbk7HiLUFjPhMjQQ9BDAGXRQ4TLoG4+Hm/ZWwGQKPT+ABKGWlQXLlQEACDBsjOTurEUPJhfsJvJZ/TD5GSwlZZXJi+rGWdjAhokNz+lG5Pzy/MhZzPjcN4ihOx08D4WitWcslYzOWWmgrpY+MjMl/1Umck4GxPQIM7qq4/z1t2YnB1vEQrrmRAZegh6CKAseohwGdTNx+MteysAEoXeH0DCUIvqwoWKEXfl3AnVetfc3e9+rNeTfDfZzDc6++mobgnw1U19cfKsuJP2X+0+rA89vIV2/bdLf0ZD7x/Ren/xYmLsfNXbRxvJzFzVyPBVyUHG2ZgSi1rUaLPjFzQ87iDjcN4ihIkxDU+4yMxofOS8Kn+sDGWcjQloEGf11cd5625Mzo63CIX1TIgMPUS4zLp9p4ufntBFwbbtBz7w8OdAa/3J5lJe0jsf7df6dtDoIcJlUDcfj7fsrVhX808zJkJ95wgAc+j9o871OcjEuvm5Tp27rGirZ50QfWH6grqut6IW1YULFQEAwGMtnepJdahZS8pl5nT3ob1MW3daXa3Bgwd3NL1wr+TLMZIxPKbWZgERs0Fd6afUFjy6n51W9r69jNl528pixIoWdfak1BHUqqVcRnOlC5qZTFu30itvtrLTCyr5sTKSMTwmCjkiyFlfFNd5G4laZPh4Sy2yg/VMiAw9RLgM4Dl6iCqZjWppEizw73jL3gqAhIlrD7GxRRzaAawf+xC1oH8FAACPbdmjN4+8oFSlb+sbygwOHV/5ZkqFbxYZyRgfExA1gxo6tvLNt/LfiDSTMT5vYcFWvfLWyrdby3970FBm8ICOLt/duMKdVo1kzI8JiBpnfVGM523ja5H54y0sYD0TIkMPES4DeI4eooYMbPDveMveCoCEYf8QQKKwD1ELLlSMmCe7f68/vvw3qsfmDqHY7/6gP25/SvZ1qPtJAe5t/L1eGOhVYj9+PX4Wvc70y8FxoLbsnVt/0r/+u4DGSnotCoUeAgAAAPDVetb3MKfDy0XWk+r+ffB5+l0t2R81c/1r3VwUACTS7/7wsvpcnBqMJPYaAVTGOcjG2Pjsf9Qf0lEr0JvVKf+s53qrH6ev6xsWTg3xxPa+p3+uFtp+4AMd9u6y8QrfeFpW/Jvsa67M335A7z26o1KFK/tr5Off15Qqf9/i9yLzjc5+Oqpbv/zb7sP6sAHfZCx/14SCZzT0voffwqjwrb5lxe/Fmuyqz3+V5/FzrlSrIbXWIiTR6nqzur5UrkUIY/e7H3v4bWVqURQkb94Wf648so5+Zu034YrrC3frsahB6wTbqtWQ4s9X/T1EMuetqfUMsEoia1FxvVm7L1dcX6rt2QHR5ed6EfFCfW0MT/f9155zWavW8zPVngch+LlGq7YnUuveCjzhqBYl83oI1mhlcd4jxP5hQvuiWvcPERmcn2mcJgEAAAAAAAAAAAAAAAAAAFjCTz9HwNKP97S4GP6Woi0bNqqNd7S0pR+Vyz/QT7LvwUMBDfAX3V+8p0R9/Fo2aKOHRe8v9xd1r+wb2aTW9g492Sxjdu57WwObggfz32p4bMJepvdFHXy1T+3K6/ZXFzQ+I2sZZ2NCCQmsRQbV2kNs3vWG9va1S/nbujRyVbO2Mg7nLULYuU+HBnqCB3O6PjymCWuZXu06uFcrH5lLGin9ZpvJOBsT0CDO6quP89bdmJwdbxEK65kQGXoIKz3EwweLWuSXoxqqqbVdHSY3TiJhST/m8npQdnP7N9qwcYPBkz30EOEyqJuPx1v2Vhpq6cec8g9cnBmMCvPnD4D1Yf8w6lyfg0QJf7mnxXt/UeOZXkNEQ7Vjv/FrqqhFdeGytgiY+uK/6B+/UGjczryC7HX9Mz8tAK99rz/9Q7ifoY8dT38q7ft/+Xunt0vv6u3XjsKfsXnKbqY9pa39/Uopo8WvZTXjbEwoIYG1qAE6Nm3Tjv6gEGQWVZgGs7YyDuctQuhKB+/jcrHSlNVMh1LbgrpY+MjcLfdGGso4GxPQIM7qq4/z1t2YnB1vEQrrmRAZeggrPcS1//r3uiY0kp8/q5bVn/+p0s8tmv7pV3qIcBnUzcfjLXsrDZX98z8l7GcbPf25VcQI+4dR5/ocJEr4/k/6x6KfhW4c02uIaKh27Dd+TRW1qC5cqAgAQIJlZyZ1Yyl4ML9gN5PP6IfJyWArLa9MXlYzzsYENEhufko3JueX50POZsbhvEUI2engfSwUq7ng9KXNTE6ZqaAuFj4y82U/VWYyzsYENIiz+urjvHU3JmfHW4TCeiZEhh6CHgIoix4iXAZ18/F4y94KgESh9weQMNSiunChIgAACTYxdr7q7aONZGauamT4quQg42xMQIPMjl/Q8LiDjMN5ixAmxjQ84SIzo/GR86r8sTKUcTYmoEGc1Vcf5627MTk73iIU1jMhMvQQ4TKA1+ghwmVQNx+Pt+ytAEgUen8ACUMtqgsXKgIAgMdaOtWT6lCzlpTLzOnuQ3uZtu60ulqDBw/uaHrhXsmXYyRjeEytzQIiZoO60k+pLXh0Pzut7H17GbPztpXFiBUt6uxJqSOoVUu5jOZKFzQzmbZupVfebGWnF1TyY2UkY3hMFHJEkLO+KK7zNhK1yPDxllpkB+uZEBl6iHAZwHP0EFUyG9XSJFjg3/GWvRUACRPXHmJjizi0A1g/9iFqQf8KAAAe27JHbx55QSlldO3MJ7p4y15mcOi4Xn82eHDzc506d7nkyzGSMT4mIGoGNXRsv1amwQl9dsVexvi8hQVb9cpbR/R8UKwy187o9Oh39jKDB3R0//KbrS9OnlXpj5WJjPkxAVHjrC+K8bxtfC0yf7yFBaxnQmToIcJlAM/RQ9SQgQ3+HW/ZWwGQMOwfAkgU9iFq0SQAAAAAAAAAAAAAAAAAAABLuKMiAAB47NaoTp8cdZK5cu5E6W/Gmc4YHtPudz/m28qImMv67ORlJxmz8/YlvfMRd5Qy7ztd/PSELrrIXDmrU1XfbBMZw2PafVgfcscTRIyzviiu81ZhXoupjOHjLbXIDtYzITL0EOEygOfoIapkntHQ+9x9yQb/jrfsrQBImLj2ENsP6D1+YQvAurEPUQvuqAgAAAAAAAAAAAAAAAAAAKzhjooAACTYzn1va2BT8GD+Ww2PTdjL9L6og6/2qV153f7qgsZnZC3jbExAg2ze9Yb29rVL+du6NHJVs7YyDuctQti5T4cGeoIHc7o+PKYJa5le7Tq4VysfmUsaKf1mm8k4GxPQIM7qq4/z1t2YnB1vEQrrmRAZegh6CKAseohwGdTNx+MteysAEoXeH0DCUIvqwoWKAAAkWFdvv3YUfhukecpupj2lrf39Simjxa9lNeNsTECDdGzaph39KSmzqMI0mLWVcThvEUJXOngfl4uVpqxmOpTaFtTFwkfmbrk30lDG2ZiABnFWX32ct+7G5Ox4i1BYz4TI0EPQQwBl0UOEy6BuPh5v2VsBkCj0/gAShlpUFy5UBAAgwbIzk7qxFDyYX7CbyWf0w+RksJWWVyYvqxlnYwIaJDc/pRuT88vzIWcz43DeIoTsdPA+ForVnLJWMzllpoK6WPjIzJf9VJnJOBsT0CDO6quP89bdmJwdbxEK65kQGXoIegigLHqIcBnUzcfjLXsrABKF3h9AwlCL6sKFigAAJNjE2Pmqt482kpm5qpHhq5KDjLMxAQ0yO35Bw+MOMg7nLUKYGNPwhIvMjMZHzqvyx8pQxtmYgAZxVl99nLfuxuTseItQWM+EyNBDhMsAXqOHCJdB3Xw83rK3AiBR6P0BJAy1qC5cqAgAAB5r6VRPqkPNWlIuM6e7D+1l2rrT6moNHjy4o+mFeyVfjpGM4TG1NguImA3qSj+ltuDR/ey0svftZczO21YWI1a0qLMnpY6gVi3lMporXdDMZNq6lV55s5WdXlDJj5WRjOExUcgRQc76orjO20jUIsPHW2qRHaxnQmToIcJlAM/RQ1TJbFRLk2CBf8db9lYAJExce4iNLeLQDmD92IeoBf0rAAB4bMsevXnkBaWU0bUzn+jiLXuZwaHjev3Z4MHNz3Xq3OWSL8dIxviYgKgZ1NCx/VqZBif02RV7GePzFhZs1StvHdHzQbHKXDuj06Pf2csMHtDR/ctvtr44eValP1YmMubHBESNs74oxvO28bXI/PEWFrCeCZGhhwiXATxHD1FDBjb4d7xlbwVAwrB/CCBR2IeoRZMAAAAAAAAAAAAAAAAAAAAseWJ739M/VwttP/CBDnt32XiFbzwBAAAAAAAAAAAAAAAAAAAjavrp59z8lG5MzssveWXylf59p1479Jx6lh/P6frwmCZ++afeF3Xw1T61l/q3snq16+Be9QX/o/ztSxoZn7GYcTWmCNi5T4cGVkYU/EF0aeSqZmv5t/JP+OhvNHf9vL6cMJ15/P55Zf5bDY9V+MQUvxdrspt3vaG9v/xBqjzPqqw3qs23GNeiR+97hdcWJlP8ufJI+bqyYue+tzWwqVR2dX2p/DzFnyuPVKtFhhS/B/7wtxY9OnZU6AXMZGz3EKZfbw2ZR+9tXre/uqDSb4GhTDn0EIi7mtchtlXqE+ghgNUc7Yl4up4Biq1/77I+fq7REAuO9iGqK+7R1q67Kv1bOR7tH5p+vWUznu77V1vPFO8JmTg/43Af4tGxo8I8NpKxPiY/12jVeojifZ612eK+oOZexFkt4hxkXVzXorKK/75hjrfsrWCtqFybYWr/MKG1yNC5jEc8Oj+TzPOqqKSmCxU7Nm3Tjn7/7qi4+HWlf+9Wb3+/nl1+3Kyp4n9qT2lr8G+pUv9WVodS2/q1o/Ab4ne/tpwpx/SYIqArHXw2V0akzKIKf5HZWv6trMd/o6YpG5nH759Xmqt8YorfizXZVfWlyvP4WYuqzbcY16JH73uF1xYmU/y58khTtenUG/zdny2VXV1fKj9P8efKI821zYKwit8Df/hbix4dOyr0AmYytnsI06+3hsyj97ZC32wqUw49BOKu5nWIbZX6BHoIYDVHeyKermeAYuvfu6yPn2s0xIKjfYjqinu0teuuSv9Wjkf7h+t5LaEynu77V1vPFO8JmTg/43Af4tGxo8I8NpKxPiY/12jVeojifZ612eK+oOZexFkt4hxkXVzXorKK/75hjrfsrWCtqFybYWr/MKG1yNC5jEc8Oj+TzPOqqKSmCxVhQk6ZqUndmJfy8znLGdRvQTOTk/opeDSXtZ0BGsFhLcpO68bkkgrfKCg7DUxlAMSMu1r06M7g+YzKPouRjLsewtmYgv/+Q/BaMpXuRG4qAwAAAACICB/3Dzk/EwsO9yGyM8H7WPjIzC+oHCMZ9lbiwVkt4hwkAKBG9BDwGBcqOjOj8ZHzGneSQf0m9OXwhKMM0AgOa9HEmKpPFUMZADHjrhbNjl/QcJXGyUzGXQ/hbEwzVzUyfFUVmcoAAAAAACLCx/1Dzs/EgsN9iImx86r+sTKQYW8lHpzVIs5BAgBqRA8Bj3GhYiO1dSvd1Ro8eKDs9ILu28ygbi2dPUp1NEtLOWXm7uphqMxGtTQJiBZntahFnT0prUyVjObulpwptWdamwXAI85q0QZ1pZ9SW/DofnZa2ZJPYiZjtoeolHE3prbutFb+vHc0vXCv1JMYywAAAAAAIiKu+4eVMkbHxL6/Lc72IVo61ZPqULOWlMvMqfTHykzG7JhaOdFrhbtaxDlIAECtOD8DX9C/NtLgAR3dX/gx9pv64uRZXbGZQd227Dmkw8+npMw3OvvpqG6FzQBR46wWbdUrbx3R8lS5dkanR78r8STrywDwiLNaNKihY/u1nPj8hD4r/SRGMsZ7iLIZd2MaHDqu11cCOnXusko+i6EMAAAAACAiYrx/WDZjfEywwdk+xJY9evPIC0opo2tnPtHFW7KWMT4mWOCuFnEOEgBQK87PwBd8rwIAAAAAAAAAAAAAAAAAAFjDHRUb6cpZnbriKIO63Rr9RKdGTWWe0dD73AkOEeOsFn2ni5+e0EUZyuw+rA/5tjLgD2e16LI+O1ntG2JmMmZ7CIV6LaYyV86dqHr3blMZAAAAAEBExHX/UGFey3oy7Pvb4mwf4taoTp+sukFjJGN2TC/pnY9Wfh0DJrmrRZyDBADUivMz8AV3VAQAAAAAAAAAAAAAAAAAANZwR0VnerXr4F71tUv525c0Mj5jMYP67dRrh55TT/Bo7vp5fTlhMwM0gsNatHOfDg0szwJdHx5T6aliKAMgZtzVos273tDelYAujVzVbIlnMZNx10M4G1Pvizr4ap/aldftry6o9FtgKAMAAAAAiAgf9w85PxMLDvchdu57WwObggfz32p4rPSOs5EMeyvx4KwWcQ4SAFAjegh4jAsVnelQalu/dqSkzN2vLWdQv2719vcv3ya/acp2BmgEh7WoK60d/YVZ0Kyy08BUBkDMuKtFHZu2BTWkEFhUITFrLeOuh3A2pvaUtgavJaWMFsu9BaYyAAAAAICI8HH/kPMzseBwH6KrN3gflz8y5XecjWTYW4kHZ7WIc5AAgBrRQ8BjXKjoTE6ZqUndmJfy8znLGdRvQTOTk/opeDSXtZ0BGsFhLcpO68bkkgrfHiw7DUxlAMSMu1qUm58KakghkFHZZzGScddDOBtT8N9/CF5LRnll8mWexFQGAAAAABARPu4fcn4mFhzuQ2Rngvex8JGZX1A5RjLsrcSDs1rEOUgAQI3oIeAxLlR0ZkbjI+c17iSD+k3oy+EJRxmgERzWookxVZ8qhjIAYsZdLZodv6DhKo2TmYy7HsLZmGauamT4qioylQEAAAAARISP+4ecn4kFh/sQE2PnVf1jZSDD3ko8OKtFnIMEANSIHgIe40LFRmrrVrqrNXjwQNnpBd23mUHdWjp7lOpolpZyyszd1cNQmY1qaRIQLc5qUYs6e1JamSoZzd0tOVNqz7Q2C4BHnNWiDepKP6W24NH97LSyJZ/ETMZsD1Ep425Mbd1prfx572h64V6pJzGWAQAAAABERFz3DytljI6JfX9bnO1DtHSqJ9WhZi0pl5lT6Y+VmYzZMbVyotcKd7WIc5AAgFpxfga+oH9tpMEDOrr/2eDBTX1x8qyu2Mygblv2HNLh51NS5hud/XRUt8JmgKhxVou26pW3jmh5qlw7o9Oj35V4kvVlAHjEWS0a1NCx/VpOfH5Cn5V+EiMZ4z1E2Yy7MQ0OHdfrKwGdOndZJZ/FUAYAAAAAEBEx3j8smzE+JtjgbB9iyx69eeQFpZTRtTOf6OItWcsYHxMscFeLOAcJAKgV52fgC75XAQAAAAAAAAAAAAAAAAAArOGOio105axOXXGUQd1ujX6iU6OmMs9o6H3uBIeIcVaLvtPFT0/oogxldh/Wh3xbGfCHs1p0WZ+drPYNMTMZsz2EQr0WU5kr505UvXu3qQwAAAAAICLiun+oMK9lPRn2/W1xtg9xa1SnT1bdoDGSMTuml/TORyu/jgGT3NUizkECAGrF+Rn4ggsVUUKzWtNppRUDrc0CAGBZc6vSaQNHrwd3NL1wTwBipMr839jCjeQRUS2d6kl1yP6qZqOYBkCtDO2JLOWUmburhwKSq6llo5E12lIuo7m7zCbEUFu30l2tsq+VEz0AAERGk1o2BmvKsm0wx22sE/uHiLoq52f8vKTH1DVVD5SdXtB9JQvHQWd6tevgXvW1S/nblzQyPmMxE1afXjl2XK8oiXbqtUPPqSd4NHf9vL6csJkBGsFhLdq5T4cGlmeBrg+PqfRUMZQBCvr26OixPQrt5uc6da7anecQjrtatHnXG9q7EtClkauaLfEsZjLueghnY+p9UQdf7VO78rr91QWVfgsMZcIyNf8B17bs0ZtHXhA3OwCixNCeSOYbnf10VLcEJFf3wN/p6IBCy1w7o9Oj3wmIncEDOhrLXwPxcf8wTudnEszhPsTOfW9rYFPwYP5bDY+V3nE2konT3kqSOatFnINMhm4N/N1xGWiDgRXsHyYT52ciztQ1VTf1xcmzibvDJRcqOtOh1LZ+7QiOIJm7X1vOoH7d6u3vX75NftOU7QzQCA5rUVdaO/oLs6BZZaeBqQyAmHFXizo2bQtqSCGwqEJi1lrGXQ/hbEztKW0NXktKGS2WewtMZQAAAAAAEeHj/iHnZ2LB4T5EV2/wPi5/ZMrvOBvJsLcSD85qEecgAQA1ooeAx7hQ0ZmcMlOTujEv5edzljOo34JmJif1U/BoLms7AzSCw1qUndaNySUVvj1YdhqYygCIGXe1KDc/FdSQQiCjss9iJOOuh3A2puC//xC8lozyyuTLPImpDAAAAAAgInzcP+T8TCw43IfIzgTvY+EjM7+gcoxk2FuJB2e1iHOQAIAa0UPAY1yo6MyMxkfOa9xJpg63RnX65KgwoS+HJxxlgEZwWIsmxlR9qhjKAAUhfrJ5+4EPdPh5bpzvjrtaNDt+QcNVGiczGXc9hLMxzVzVyPBVVWQqU4dbo5/oVI3tK3McscDPxAIREeInV3Yf1oex/IlPwI4wP9m8+92P9TrTCT4JsWfhno/7hxE/P4MVDvchJsbOq/rHykAm4nsr+CtntYhzkP66rM9O1nqcf0nvfLRftLqoC/uHyeHR+Rk/1/ch9g+3H9B7Cf85dy5UbKS2bqW7WoMHD5SdXtB9mxnUraWzR6mOZmkpp8zcXT0MldmoliYB0eKsFrWosyellamS0dzdkjOl9kxrswB4xFkt2qCu9FNqCx7dz04rW/JJzGTM9hCVMu7G1Nad1sqf946mF+6VehJjGQAAAABARMR1/7BSxuiY2Pe3xdk+REunelIdataScpk5lf5YmcmYHVMrJ3qtcFeLOAcJAKgV52fgC/rXRho8oKPL37SvcLWtqQzqtmXPoZU78FT4hsK6MkDUOKtFW/XKW0e0PFXK3lVhfRkAHnFWiwY1dGzlG6s3Pz+hz0o/iZGM8R6ibMbdmAaHjq98863C3UBMZQAAAAAAERHj/cOyGeNjgg3O9iG27NGby3e2yejamU908ZasZYyPCRa4q0WcgwQA1IrzM/AFFyomVofSL7+sP8pjPR0CACRIR1p/DI5tNblzS//9z/8uADGynjm+9n/a/aSA2PndH/TH7U/Jvg4xRYBi69gveTCjP3/zb1oUgFKe7P590L/9TU3ZH6ev65ubzCYkx8Zn/6P+kHbRhG1WpwAAgFlPqvv3wbrxd6oDx2YYxP4hXAlxfmazl5ftrOd6qzu6/ac/i7PSj3GhYiNdOatTVxxlfiWt//BaWqju1ugnOjVqKvOMht7nTnCIGGe16Dtd/PSELspQZvdhfci3lVEs/QfVfGi7+TkXKkaNs1p0WZ+drPYNMTMZsz2EQr0WU5kr505UvXu3qcyvrGeOAz7YNqDXXqPXAdxbx35J5hv9Dy5UBMrqfOZFvfZMbdnMtf/BhYpIlE39u/RanDaJ47p/qDCvZT0Z9v1tcbYPcWtUp09W3aAxkjE7ppf0zkcrv44Bk9zVIs5BxlWnnnlxn2psdQF72D9MFM7PRMl6rre6qS+4UHGVJgEAAAAAAAAAAAAAAAAAAFjCHRWd6dWug3vV1y7lb1/SyPiMxUw5D/VgcTGZ3/S/96OWagru1GuHnlNP8Gju+nl9OWEzAzSCw1q0c58ODSzPAl0fHlPpqWIoAxT85Z4W7/2l7D83tbar48lmIQrc1aLNu97Q3pWALo1c1WyJZzGTcddDOBtT74s6+Gqf2pXX7a8uqPRbYChTzsMHWlwM370y/xF7Sz8ql3+gn2Tfg4cCEu4vur94T2WnQssGbWxjOw2oxdKPOeUflD96tWzYKKYToKr7Gebc0481NZQ+7h9G4fwMqnK4D7Fz39sa2BQ8mP9Ww2Old5yNZKKwt4LqnNUizkHG25J+vBecZw+9Vfkbbdi4gYs0YB77h37x6PyMn2v/KvuHTa1q73hSnJUqjWOgMx1KbevXjpSUufu15Uw53+i//cM3QiXd6u3vX75NftOU7QzQCA5rUVdaO/oLs6BZZaeBqQxQ8P2f9I/nyv9s7fYDH+gwv3sREe5qUcembUENKQQWVUjMWsu46yGcjak9pa3Ba0kpo8Vyb4GpTDnX/jf94zWFxvxH7GWv658/HdUtAbDve/3pH86W/wmc3Yf14X5+VgmoRfbP/6TTo9+V/ffd736s15lOQNX9DPd83D+MwvkZVOVwH6KrN3gflz8y5XecjWSisLeC6pzVIs5Bxtv3Gvtf/15jCoufbIcl7B/6xaPzM36u/avsH24/oPeOvCDOSpXGhYrO5JSZmtSNeSk/n7OcQf0WNDM5ufxNg7ms7QzQCA5rUXZaNyYL9zKdU9lpYCoDIGbc1aLc/FRQQwqBjMo+i5GMux7C2ZiC//5D8FoyyiuTL/MkpjIAAAAAgIjwcf+Q8zOx4HAfIjsTvI+Fj8z8gsoxkmFvJR6c1SLOQQIAakQPAY9xoaIzMxofOa9xJxnUb0JfDk84ygCN4LAWTYyp+lQxlAEQM+5q0ez4BQ1XaZzMZNz1EM7GNHNVI8NXVZGpDAAAAAAgInzcP+T8TCw43IeYGDuv6h8rAxn2VuLBWS3iHCQAoEb0EPAYFyo2Ulu30l2twYMHyk4v6L7NDOrW0tmjVEeztJRTZu5uyd+Zrz2zUS1NAqLFWS1qUWdPSitTJaO5uyVnSu2Z1mYB8IizWrRBXemn1BY8up+dVrbkk5jJmO0hKmXcjamtO62VP+8dTS/cK/UkxjIAAAAAgIiI6/5hpYzRMbHvb4uzfYiWTvWkOtSsJeUycyr9sTKTMTumVk70WuGuFnEOEgBQK87PwBf0r400eEBH9xd+jP2mvjhZ5vfLTWVQty17Dunw8ykp843OfjqqW2EzQNQ4q0Vb9cpbR7Q8Va6d0enR70o8yfoyADzirBYNaujYfi0nPj+hz0o/iZGM8R6ibMbdmAaHjuv1lYBOnbusks9iKAMAAAAAiIgY7x+WzRgfE2xwtg+xZY/ePPKCUsro2plPdPGWrGWMjwkWuKtFnIMEANSK8zPwBd+rAAAAAAAAAAAAAAAAAAAA1nBHxUa6clanrjjKoG63Rj/RqVFTmWc09D53gkPEOKtF3+nipyd0UYYyuw/rQ76tDPjDWS26rM9OVvuGmJmM2R5CoV6LqcyVcyeq3r3bVAYAAAAAEBFx3T9UmNeyngz7/rY424e4NarTJ6tu0BjJmB3TS3rno5Vfx4BJ7moR5yABALXi/Ax8wR0VAQAAAAAAAAAAAAAAAACANdxR0Zle7Tq4V33tUv72JY2Mz1jMoH479dqh59QTPJq7fl5fTtjMAI3gsBbt3KdDA8uzQNeHx1R6qhjKAIgZd7Vo8643tHcloEsjVzVb4lnMZNz1EM7G1PuiDr7ap3bldfurCyr9FhjKAAAAAAAiwsf9Q87PxILDfYid+97WwKbgwfy3Gh4rveNsJMPeSjw4q0WcgwQA1IgeAh7jQkVnOpTa1q8dKSlz92vLGdSvW739/cu3yW+asp0BGsFhLepKa0d/YRY0q+w0MJUBEDPualHHpm1BDSkEFlVIzFrLuOshnI2pPaWtwWtJKaPFcm+BqQwAAAAAICJ83D/k/EwsONyH6OoN3sflj0z5HWcjGfZW4sFZLeIcJACgRvQQ8BgXKjqTU2ZqUjfmpfx8znIG9VvQzOSkfgoezWVtZ4BGcFiLstO6MbmkwrcHy04DUxkAMeOuFuXmp4IaUghkVPZZjGTc9RDOxhT89x+C15JRXpl8mScxlQEAAAAARISP+4ecn4kFh/sQ2ZngfSx8ZOYXVI6RDHsr8eCsFnEOEgBQI3oIeIwLFZ2Z0fjIeY07yaB+E/pyeMJRBmgEh7VoYkzVp4qhDICYcVeLZscvaLhK42Qm466HcDammasaGb6qikxlAAAAAAAR4eP+IednYsHhPsTE2HlV/1gZyLC3Eg/OahHnIAEANaKHgMe4ULGR2rqV7moNHjxQdnpB921mULeWzh6lOpqlpZwyc3f1MFRmo1qaBESLs1rUos6elFamSkZzd0vOlNozrc0C4BFntWiDutJPqS14dD87rWzJJzGTMdtDVMq4G1Nbd1orf947ml64V+pJjGUAAAAAABER1/3DShmjY2Lf3xZn+xAtnepJdahZS8pl5lT6Y2UmY3ZMrZzotcJdLeIcJACgVpyfgS/oXxtp8ICO7n82eHBTX5w8qys2M6jblj2HdPj5lJT5Rmc/HdWtsBkgapzVoq165a0jWp4q187o9Oh3JZ5kfRkAHnFWiwY1dGy/lhOfn9BnpZ/ESMZ4D1E2425Mg0PH9fpKQKfOXVbJZzGUAQAAAABERIz3D8tmjI8JNjjbh9iyR28eeUEpZXTtzCe6eEvWMsbHBAvc1SLOQQIAasX5GfiC71UAAAAAAAAAAAAAAAAAAABrntje9/TP1ULbD3zg4bcwKnzjqaD3RR18tU/ty/+POV0fHtNELf9WVq92HdyrvuB/lL99SSPjM/YyO/fp0EBP5ddmJONuTJt3vaG9KwFdGrmq2RLPYiazU68dek7Lo75+Xl+W/sMYypRR/Pla+zofvSeqOM6oefR3L5j/VsNjEzX92/o9/iwFfyDd/uqCHn+cHr8nv/63CKMW1ZYpY+e+tzWwaeXx6rlY/FmpY542TKXXbXhMxfXG6rx1x10tKq43JuZtBMS4FvnYQzgb06P3tsJx01DmUb2uMP9MZUrzsIdAPFTq7+vq/SOwnvGwhwBWMT5vK/2f8m09A6xW/Blf289X+rc6/i/5t0ZDLBjfh3C2RuNcRrhMGR7u+xvvi3zch3A4prI8XKMZ7yGc1SLOQVoR41pU05jYW4GP+4dcD1H9CRN1fobzqkmr5DX99POt0U90arRS4hkNvf/Lz3CuvQDwJb3z0cpPyFW9ODBK2lPa2t+vlcszmzVV67+V1aHUtn7tKNyZ++7XdjNdae3of7byazOScTemjk3bgtdSCCyqkJi1lulWb/DeFkbdVPYPYypTRvHna+3rfPSeqOI4o+bR372gearmf6vj/9Kjz1Kh3iyu+jg9fk9+/W8RRi2qLVPuf9obvMa/TpnVc7H4s1LHPG2YSq/b8JiK643VeeuOu1pUXG9MzNsIiHEt8rGHcDamR+9theOmocyjel1h/pnKlOZhD4F4qNTf19X7R2A942EPAaxifN5W+D/l3XoGWK34M762n6/0b+vn4RoNsWB8H8LZGo1zGeEyZXi472+8L/JxH8LhmMq/SP/WaMZ7CGe1iHOQVsS4FpXF3gqK+bh/yPUQ1SXq/AznVZOmpgsVYUJOmalJ3ZiX8vM5u5nstG5MLqlw9W22zLOYybgbU25+KngthUBGZZ/FSGZBM5OT+il4NFf2D2MqAzSCj7UIQPzQQ4TJOBtT8N9/CF5LRnll8mWexFAmOxO8j4VSP7+gckxlAL+xngEAAPCWszUa5zLCZVA3H/chHI4JITirRazZY4F5C+9Ri2KB8zPwGBcqOjOj8ZHzGneRmRjTcLV7gxrJuBvT7PgFDVd+EkOZCX1Z/Q9jKAM0go+1CED80EOEyTgb08xVjQxfVUWGMhNj51X9cGAmA/iN9QwAAIC3nK3ROJcRLoO6+bgP4XBMCMFZLWLNHgvMW3iPWhQLnJ+Bx7hQsZHaupXuag0ePFB2ekH3rWVa1NmTUkeztJTLaO7uwxJPYijjbEwb1JV+Sm3Bo/vZaWVLPomZTEtnj1Irg1Zm7q5K/mUMZYCG8LEWAYgfeogQGXdjautOa+XPe0fTC/dKPYmZTEunelIdataScpk5lT4cGMoAnmM9AwAA4C9nazTOZYTLoG4+7kM4GxNCcFeLWLPHA/MWvqMWxQPnZ+ALLlRspMEDOrq/8EvrN/XFybO6Yi2zVa+8dUTPp6TMtTM6PfpdiScxlHE2pkENHdu//Dv1Nz8/oc9KP4mRzJY9h3R4edDf6Oyno7olexmgIXysRQDihx4iRMbdmAaHjuv1lYBOnbusks9iIrNlj9488oJSyujamU908ZbsZQDPsZ4BAADwl7M1GucywmVQNx/3IZyNCSG4q0Ws2eOBeQvfUYvigfMz8EWTAAAAAAAAAAAAAAAAAAAALOGOio105axOXXGR+U4XPz2hi3KQcTamy/rsZLVvmpjJ3Br9RKdG5SQDNISPtQhA/NBDhMi4G9OVcyeq3h3CSObWqE6frPqHMZMBPMd6BgAAwF/O1micywiXQd183IdwNiaE4K4WsWaPB+YtfEctigfOz8AX3FERAAAAAAAAAAAAAAAAAABYwx0VnenVroN71dcu5W9f0sj4jL3Mzn06NNATPJjT9eExTZR6OUYy7sa0edcb2rsS0KWRq5ot8SxmMjv12qHntDzq6+f1Zek/jKEM0Ag+1iIA8UMPESbjbEy9L+rgq31qV163v7qg0m+BmczOfW9rYFPwYP5bDY+VrvSmMoDfWM8AAAB4y9kajXMZ4TKom4/7EA7HhBCc1SLW7LHAvIX3qEWxwPkZeIwLFZ3pUGpbv3akpMzdr+1mutLa0f9s8KBZU2WexUzG3Zg6Nm0LXkshsKhCYtZaplu9/f0qjLqp7B/GVAZoBB9rEYD4oYcIk3E2pvaUtgavJaWMFsu9BYYyXb3B+7hc6stXelMZwG+sZwAAALzlbI3GuYxwGdTNx30Ih2NCCM5qEWv2WGDewnvUoljg/Aw8xoWKzuSUmZrUjXkpP5+zm8lO68bkkgrf2MmWeRYzGXdjys1PBa+lEMio7LMYySxoZnJSPwWP5sr+YUxlgEbwsRYBiB96iDAZZ2MK/vsPwWvJKK9MvsyTGMpkZ4L3sVDq5xdUjqkM4DfWMwAAAN5ytkbjXEa4DOrm4z6EwzEhBGe1iDV7LDBv4T1qUSxwfgYe40JFZ2Y0PnJe4y4yE2MarnYnVSMZd2OaHb+g4cpPYigzoS+r/2EMZYBG8LEWAYgfeogwGWdjmrmqkeGrqshQZmLsvKofDsxkAL+xngEAAPCWszUa5zLCZVA3H/chHI4JITirRazZY4F5C+9Ri2KB8zPwGBcqNlJbt9JdrcGDB8pOL+i+tUyLOntS6miWlnIZzd19WOJJDGWcjWmDutJPqS14dD87rWzJJzGTaensUWpl0MrM3VXJv4yhDNAQPtYiAPFDDxEi425Mbd1prfx572h64V6pJzGTaelUT6pDzVpSLjOn0ocDQxnAc6xnAAAA/OVsjca5jHAZ1M3HfQhnY0II7moRa/Z4YN7Cd9SieOD8DHzBhYqNNHhAR/cXfqT9pr44eVZXrGW26pW3juj5lJS5dkanR78r8SSGMs7GNKihY/u1nPj8hD4r/SRGMlv2HNLh5UF/o7OfjuqW7GWAhvCxFgGIH3qIEBl3YxocOq7XVwI6de6ySj6LicyWPXrzyAtKKaNrZz7RxVuylwE8x3oGAADAX87WaJzLCJdB3Xzch3A2JoTgrhaxZo8H5i18Ry2KB87PwBdNAgAAAAAAAAAAAAAAAAAAsIQ7KjbSlbM6dcVF5jtd/PSELspBxtmYLuuzk9W+aWImc2v0E50alZMM0BA+1iIA8UMPESLjbkxXzp2oencII5lbozp9suofxkwG8BzrGQAAAH85W6NxLiNcBnXzcR/C2ZgQgrtaxJo9Hpi38B21KB44PwNfOL5QsUktG9NKpxV9G1u43SSiralFG4PJFI/pFLXZRC3Car9pjcnnQRsVuenU3Br87WLxx4tgLWpWa0zqOLUI+EWMegjEQ2uzEitGPQSwSgTnbXzWM8Bq0ZtOMVqjIRaitw+BWIjRvn+i1zM+itEajY+eA9SieGBvJRmS/BnnegiswnlVXzi+ULFbA393XANKol7tOrhXfe1S/vYljYzP2Mvs3KdDAz3BgzldHx7TRKmXYyTjbkybd72hvSsBXRq5qtkSz2Ims1OvHXpOy6O+fl5flv7DGMqE1P2c3jj2nFAPapFftSi8p/cc19E9Qj369ujoMf549enTK8eO6xUlET1EmIyzMfW+qIOv9qlded3+6oJKvwVmMjv3va2BTcGD+W81PFa60pvKhJPkHgLxEKP1DD0EYAzrGcCUJK/REAvO1micywiXCSnJ+/4+7kM4HFNoSV6jOatFnIOMBeYtvEctigXOz5TAmt0X/PSzMx1KbevXjpSUufu13UxXWjv6n1XhiuKpMs9iJuNuTB2btgWvpRBYVCExay3Trd7+fhVG3VT2D2MqAzSCj7UIQPzQQ4TJOBtTe0pbg9eSUkaL5d4CQ5mu3uB9XC715Su9qQzgN9YzAAAA3nK2RuNcRrgM6ubjPoTDMSEEZ7WINXssMG/hPWpRLHB+Bh7jQkVncspMTerGvJSfz9nNZKd1Y3JJhW/sZMs8i5mMuzHl5qeC11IIZFT2WYxkFjQzOamfgkdzZf8wpjJAI/hYiwDEDz1EmIyzMQX//YfgtWSUVyZf5kkMZbIzwftYKPXzCyrHVAbwG+sZAAAAbzlbo3EuI1wGdfNxH8LhmBCCs1rEmj0WmLfwHrUoFjg/A489sb3v6Z8V2jMaev+Ink8VHmd07cwnunhL/tp+QO8deUHLw9VNfXHyrK4IMKT485X5Rmc/HdUt+Wv7gQ90eKV4BNPpc506d1n1oxZRi1bb/e7Hev3Zlcc3Pz+hz7z+AxV//g2Md/dhfbj/0R8v5NyMPrO16CW989F+rfz1EjA3qUXwQsJ6CMRD8bE4TuuChPUQwCqG522y1jPAasWf/8y1Mzo9+p3ql7A1GmLB7D4EYiFh+/6xXc/4KGFrNLM9hIeoReytwC9x/YxzPYRQjPOqSduj4I6KjdTWrXRXa/DggbLTC7pvLdOizp6UOpqlpVxGc3cflngSQxlnY9qgrvRTagse3c9OK1vyScxkWjp7lFoZtDJzd1XyL2MoAzSEj7UIQPzQQ4TIuBtTW3daK3/eO5peuFfqScxkWjrVk+pQs5aUy8yp9OHAUAbwHOsZAAAAfzlbo3EuI1wGdfNxH8LZmBCCu1rEmj0emLfwHbUoHjg/A19woWIjDR7Q0eUr3CtcJWsks1WvvLVyh5jy3x4ylHE2pkENHVu5qrr8XQXMZLbsObRyhXuFq/lNZYCG8LEWAYgfeogQGXdjGhw6vvKt9Arf+jOS2bJHby5/o6zC3Q1NZQDPsZ4BAADwl7M1GucywmVQNx/3IZyNCSG4q0Ws2eOBeQvfUYvigfMz8IWFCxWfVPfvX9Yffyd/tf82GCXgwJO/1e9ffll/I391dNuaTdQirNaZDj4PL8tjHbI2nTrSwd/O6z+exVrUoXTwt/ujPEYtgncS0EMgHno6FHsJ6CGAVSzOW//XM8Bqm61NpwSs0RAL9vYhEAsJ2Pf3Yj3jowSs0Tbz0asdtSge2FtBJT58xrkeAqtwXjUJntje9/TPCu0ZDb2/8o2Q5OFbcjBs1W/SJ0zobxBRi6hFq+1+9+OVb4QkUPk7ptVo92F9uD+xf7yQteglvfPRyl3pkodahLhKcg+BWIjTt5CT3EMAxQzM2ySvZ4Bi4X9NIclrNMQCd1VKhiTv+3NXpcZK8BqNX2QqgVrE3gr8FafPONdDCMU4r5q086pNAgAAAAAAAAAAAAAAAAAAsMTQTz8v6cd7i1pcVAI90MOacr3adXCv+tql/O1LGhmfsZfZuU+HBnqCB3O6PjymiVIvx0jG3Zg273pDe1cCujRyVbMlnsVMZqdeO/Sclkd9/by+LP2HMZQp46cfdS+YTMmcTrXNpvKoRdX5WIvKe/ggqZ8HA9Pp4YPgb8cfrz4P9SCpdTyCtcjHHsLZmHpf1MFX+9SuvG5/dUGl3wIzmZ373tbApuDB/LcaHitd6U1lSktyD4FYuPdj8CmtRQTWM0nuIYBiNc/b8pK8ngGK3fsx9GxK8BoNsVDrPoSzNRrnMsJlykjyvn+tfZGP+xAOx1RWgtdoNfcQzmoR5yAbKoK1qCz2VlCPOO0fcj1EdYk6P8N51aQxdKHi9xr7X/9eY0J5HUpt69eOlJS5+7XdTFdaO/oLN0Zt1lSZZzGTcTemjk3bgtdSCCyqkJi1lulWb3//8m1lm8r+YUxlyvj+C/2//+ELoR7Uoup8rEXlXfuvf69rQl2u/W/6R/54dfpG/+0fvhEqoYcIk3E2pvaUtgavJaWMFsu9BYYyXb3B+7hc6stXelOZ0ugh4IsIrGfoIQBjWM8AprBGgyecrdE4lxEuUwb7/tX5uA/hcExlsUarzlkt4hxkLDBv4T1qUSwk6vwMa/akMXShIqrLKTM1qRvzUn4+ZzeTndaNycL18nPKlnkWMxl3Y8rNTwWvpRDIqOyzGMksaGZyUj8Fj+bK/mFMZYBG8LEWAYgfeogwGWdjCv77D8FrySivTL7MkxjKZGeC97FQ6ucXVI6pDOA31jMAAADecrZG41xGuAzq5uM+hMMxIQRntYg1eywwb+E9alEscH4GHntie9/TPwsAAAAAAAAAAAAAAAAAAMCC5u7urv+n0Bht3Upv6lJnZ4uWcvf1F2uZFnX2bNZvN3ZqwxM/Kv/jTyWexFDG2Zg2qCu9Sd2dnfrNUk4PSj6JmUxLZ482/3ajOjc8oR/zP6rkX8ZQBmgIH2sRgPihhwiRcTemtu60NnV1qrPlJ+Xul3wSM5mWTvVs/q02dm7QEz/mVfpwYCgDeI71DAAAgL+crdE4lxEug7r5uA/hbEwIwV0tYs0eD8xb+I5aFA+cn4EvuFCxkV74v+j/9tZ+/e3zm3Tvf/+z/g9rmT7t+0//WQdfeV7bW77XN/9W6larhjLOxvQf9T//39/S688/r1T+f9e/lnwSM5mnX//P+k8HX9Hfbm/R91//m0r9ZUxlgIbwsRYBiB96iBAZd2N64X/+f+jN/c/rb1N5/f/+XPJJzGSefl3/1//8hl5+/hm1fP+1/q30H8ZMBvAc6xkAAAB/OVujcS4jXAZ183EfwtmYEIK7WsSaPR6Yt/AdtSgeOD8DXzQJAAAAAAAAAAAAAAAAAADAkie29z39swAAAAAAAAAAAAAAAAAAACzgjooAAAAAAAAAAAAAAAAAAMCa3wiO9GrXwb3qa5fyty9pZHzGXmbnPh0a6AkezOn68JgmSr0cIxl3Y9q86w3tXQno0shVzZZ4FjOZnXrt0HNaHvX18/qy9B/GUAZoBB9rEYD4oYcIk3E2pt4XdfDVPrUrr9tfXVDpt8BMZue+tzWwKXgw/62Gx0pXelMZwG+sZwD8n+3cMVMTQRjG8SfgzRA5JiEB0kiIDukJVlIJHRY40grfQP0MfjgsscMm0IAWosnAYE7MmODF+q7J7m1md/6/KsM8s3PvZe7l3tsDAECwnM1o7GWYZTC1EJ9DOKwJBpz1ImZ2L3DdInj0Ii+wP4OA8aKiM4uqrbe1WZP6v06LzVQa2mw/Sz/M6ypnFTsZdzUt1tfTY5kE7jRJ/CgsU9Vau61J1XO5J8ZWBpiFEHsRAP9wD2GScVbT45qepMdSU193eV+BpUxlLf0e/7f6/E5vKwOEjXkGAAAgWM5mNPYyzDKYWojPIRzWBAPOehEzuxe4bhE8epEX2J9BwHhR0ZmB+lddnfekpDcoNnP7XefdkSZ/sXObs4qdjLuaBr2r9Fgmgb5yV7GSudF1t6tx+uln7omxlQFmIcReBMA/3EOYZJzVlP78a3osfSXqJzmLWMrcXqff46TV926Ux1YGCBvzDAAAQLCczWjsZZhlMLUQn0M4rAkGnPUiZnYvcN0iePQiL7A/g4CVWhvNBwEAAAAAAAAAAAAAAAAAABRgvlqtfBRmY6GqRr2iOI40Gtzrb2GZSPHKqpaXYpVLQyXDccYiljLOaiqr0qirGsd6NBroT+YidjJRvKLV5SXF5ZKGyVCZZ8ZSBpiJEHsRAP9wD2GQcVfTQrWheiVWHI01uM9cxE4mirWyuqyluKzSMFH2rwNLGSBwzDMAAADhcjajsZdhlsHUQnwO4awmGHDXi5jZ/cB1i9DRi/zA/gxCwYuKs7T9Wu8O97TVqev3yZm+FZbZ0MujY+3vdNSKLvX5IutfrVrKOKvpuQ7eH2q301EtOdGXzEXsZJq7xzra39FWK9Ll6YWyzoytDDATIfYiAP7hHsIg466m7YMPerPX0VYt0aezzEXsZJq7env8Si86TxVdnuoi+8TYyQCBY54BAAAIl7MZjb0MswymFuJzCGc1wYC7XsTM7geuW4SOXuQH9mcQijkBAAAAAAAAAAAAAAAAAAAUpNTaaD4IAAAAAAAAAAAAAAAAAACgAP8AUU/iKAYhN7YAAAAASUVORK5CYII=;" vertex="1" parent="1">
                    <mxGeometry x="271.78" y="-10.25" width="657.44" height="71" as="geometry"/>
                </mxCell>
            </root>
        </mxGraphModel>
    </diagram>
</mxfile>